<svg id="svg" version="1.1" xmlns="http://www.w3.org/2000/svg" xmlns:xlink="http://www.w3.org/1999/xlink" width="400" height="400" viewBox="0, 0, 400,400"><g id="svgg"><path id="path0" d="M237.704 78.890 C 231.980 79.346,228.664 79.775,224.748 80.568 C 193.810 86.830,174.102 108.705,169.865 141.484 C 169.053 147.761,169.051 147.852,168.976 174.382 L 168.903 200.093 143.621 200.093 L 118.339 200.093 118.339 228.838 L 118.339 257.583 143.630 257.583 L 168.922 257.583 168.922 327.186 L 168.922 396.789 170.089 396.989 C 186.791 399.865,216.124 399.822,230.565 396.901 L 231.078 396.797 231.078 327.190 L 231.078 257.583 254.316 257.583 C 267.098 257.583,277.555 257.545,277.555 257.498 C 277.555 257.451,279.529 244.552,281.941 228.834 C 284.354 213.116,286.328 200.219,286.328 200.175 C 286.328 200.131,273.917 200.073,258.749 200.047 L 231.171 200.000 231.171 179.655 C 231.171 164.056,231.228 158.896,231.413 157.536 C 233.231 144.175,240.241 135.904,252.285 132.907 C 257.089 131.712,256.974 131.719,273.588 131.640 L 288.754 131.568 288.754 107.139 C 288.754 93.703,288.689 82.670,288.611 82.621 C 288.194 82.364,276.797 80.859,270.089 80.176 C 258.591 79.005,243.697 78.414,237.704 78.890 " stroke="none" fill="#fbfbfc" fill-rule="evenodd"></path><path id="path1" d="M188.801 1.137 C 76.107 7.546,-8.577 105.899,1.694 218.446 C 9.827 307.563,76.891 380.505,165.097 396.172 C 167.127 396.532,168.817 396.827,168.855 396.827 C 168.892 396.827,168.922 365.497,168.922 327.205 L 168.922 257.583 143.630 257.583 L 118.339 257.583 118.339 228.745 L 118.339 199.907 143.631 199.907 L 168.924 199.907 168.921 175.128 C 168.919 149.856,168.956 148.228,169.674 142.301 C 173.922 107.199,195.564 84.556,229.585 79.620 C 242.153 77.797,261.955 78.603,284.554 81.857 C 286.300 82.109,287.958 82.363,288.241 82.423 L 288.754 82.531 288.754 107.040 L 288.754 131.550 274.148 131.648 C 259.287 131.749,258.186 131.798,254.316 132.546 C 240.972 135.123,232.879 144.226,231.460 158.256 C 231.337 159.471,231.265 167.562,231.265 180.048 L 231.265 199.907 258.878 199.907 L 286.491 199.907 286.393 200.513 C 286.339 200.847,284.348 213.803,281.970 229.305 L 277.644 257.490 254.454 257.537 L 231.265 257.584 231.265 327.209 L 231.265 396.834 231.685 396.739 C 231.916 396.687,233.149 396.471,234.426 396.259 C 282.234 388.314,327.120 361.221,357.645 321.885 C 404.593 261.388,412.484 178.362,377.781 110.033 C 341.887 39.359,267.763 -3.353,188.801 1.137 " stroke="none" fill="#1c74f4" fill-rule="evenodd"></path><path id="path2" d="M243.358 78.720 C 244.003 78.756,245.011 78.756,245.598 78.719 C 246.184 78.682,245.656 78.652,244.424 78.653 C 243.192 78.653,242.712 78.683,243.358 78.720 M252.217 78.897 C 252.396 78.944,252.690 78.944,252.870 78.897 C 253.049 78.850,252.902 78.811,252.543 78.811 C 252.184 78.811,252.037 78.850,252.217 78.897 M190.191 97.947 L 189.547 98.647 190.247 98.004 C 190.632 97.650,190.947 97.335,190.947 97.304 C 190.947 97.161,190.789 97.295,190.191 97.947 M188.511 99.627 L 187.867 100.327 188.567 99.683 C 188.952 99.330,189.267 99.015,189.267 98.983 C 189.267 98.841,189.109 98.975,188.511 99.627 M231.170 180.401 L 231.171 200.000 258.703 200.001 L 286.234 200.002 258.750 199.954 L 231.266 199.905 231.217 180.354 L 231.169 160.803 231.170 180.401 M130.999 200.047 C 138.014 200.074,149.437 200.074,156.384 200.047 C 163.331 200.020,157.592 199.997,143.630 199.997 C 129.669 199.997,123.985 200.020,130.999 200.047 M231.170 327.112 C 231.170 365.404,231.192 381.041,231.218 361.861 C 231.244 342.681,231.244 311.351,231.218 292.239 C 231.192 273.127,231.170 288.819,231.170 327.112 " stroke="none" fill="#9bc4fc" fill-rule="evenodd"></path><path id="path3" d="" stroke="none" fill="#84b4fc" fill-rule="evenodd"></path><path id="path4" d="M240.831 78.715 C 241.113 78.758,241.575 78.758,241.857 78.715 C 242.140 78.672,241.909 78.637,241.344 78.637 C 240.779 78.637,240.548 78.672,240.831 78.715 M247.079 78.716 C 247.411 78.757,247.999 78.758,248.386 78.718 C 248.773 78.677,248.502 78.644,247.783 78.643 C 247.065 78.642,246.748 78.675,247.079 78.716 M253.336 78.897 C 253.516 78.944,253.810 78.944,253.990 78.897 C 254.169 78.850,254.022 78.811,253.663 78.811 C 253.304 78.811,253.157 78.850,253.336 78.897 M261.829 131.726 C 262.163 131.768,262.709 131.768,263.042 131.726 C 263.376 131.685,263.103 131.651,262.436 131.651 C 261.769 131.651,261.496 131.685,261.829 131.726 " stroke="none" fill="#4e99f4" fill-rule="evenodd"></path></g></svg>