<svg id="svg" version="1.1" xmlns="http://www.w3.org/2000/svg" xmlns:xlink="http://www.w3.org/1999/xlink" width="400" height="400" viewBox="0, 0, 400,400"><g id="svgg"><path id="path0" d="M293.000 0.266 C 275.825 1.018,258.184 7.014,242.538 17.420 C 232.113 24.353,152.942 103.435,148.287 111.565 L 147.174 113.509 148.321 113.419 C 148.952 113.369,149.660 113.210,149.894 113.065 C 150.128 112.921,150.743 112.800,151.260 112.796 C 151.777 112.793,152.920 112.685,153.800 112.556 C 158.664 111.846,171.676 111.587,177.000 112.095 C 178.320 112.221,180.557 112.429,181.972 112.558 C 183.387 112.687,184.917 112.914,185.372 113.063 C 185.827 113.211,186.560 113.377,187.000 113.430 C 190.619 113.867,191.754 114.048,192.060 114.237 C 192.254 114.357,192.905 114.541,193.507 114.645 C 194.108 114.749,197.086 115.480,200.125 116.270 L 205.650 117.706 223.328 100.153 C 265.566 58.213,268.024 55.912,274.028 52.679 C 278.372 50.341,287.747 47.264,289.028 47.755 C 289.343 47.876,289.600 47.787,289.600 47.557 C 289.600 47.328,290.095 47.192,290.700 47.255 C 291.305 47.319,291.980 47.265,292.200 47.135 C 292.730 46.824,304.486 46.818,305.000 47.129 C 305.220 47.262,305.895 47.319,306.500 47.255 C 307.105 47.192,307.600 47.328,307.600 47.557 C 307.600 47.787,307.855 47.877,308.167 47.757 C 309.753 47.149,319.157 50.707,324.444 53.915 C 334.834 60.221,346.141 72.692,349.599 81.659 C 351.058 85.444,352.537 91.432,352.268 92.463 C 352.162 92.868,352.248 93.306,352.458 93.436 C 352.669 93.566,352.844 94.692,352.846 95.937 C 352.848 97.181,352.873 99.820,352.901 101.800 C 353.133 117.984,350.275 125.253,338.867 137.499 C 320.524 157.188,268.577 208.588,261.980 213.576 C 253.482 220.000,240.345 223.551,229.200 222.435 C 224.292 221.944,217.135 220.429,217.434 219.944 C 217.548 219.760,217.389 219.706,217.080 219.825 C 214.867 220.674,206.589 216.277,198.600 210.008 C 187.143 201.018,182.091 199.308,173.568 201.533 C 165.305 203.690,156.400 213.706,156.400 220.842 C 156.400 221.479,156.250 222.000,156.068 222.000 C 155.885 222.000,155.750 222.989,155.768 224.198 C 155.785 225.406,155.935 226.396,156.100 226.398 C 156.265 226.399,156.400 226.936,156.400 227.591 C 156.400 241.988,191.595 265.197,218.000 268.213 C 219.210 268.351,220.470 268.558,220.800 268.673 C 222.088 269.120,240.451 269.463,241.115 269.052 C 241.318 268.927,242.725 268.743,244.242 268.645 C 245.759 268.546,247.270 268.378,247.600 268.271 C 249.037 267.806,254.924 266.829,255.213 267.008 C 255.388 267.116,255.592 267.030,255.666 266.816 C 255.740 266.602,256.430 266.376,257.200 266.314 C 257.970 266.251,258.690 266.110,258.800 266.000 C 258.910 265.890,261.160 265.100,263.800 264.245 C 276.696 260.066,288.243 253.455,298.200 244.550 C 308.703 235.155,364.729 178.455,379.356 162.417 C 386.898 154.147,396.487 132.858,398.551 119.800 C 404.117 84.595,393.640 53.761,367.558 28.586 C 347.027 8.769,321.370 -0.976,293.000 0.266 M161.000 130.820 C 160.340 131.039,158.990 131.191,158.000 131.159 C 157.010 131.126,155.882 131.233,155.493 131.395 C 155.105 131.558,154.340 131.605,153.793 131.501 C 153.247 131.396,152.800 131.486,152.800 131.701 C 152.800 131.915,152.264 132.012,151.610 131.916 C 150.955 131.820,150.370 131.847,150.310 131.976 C 150.191 132.229,142.717 134.046,141.400 134.142 C 140.960 134.174,140.510 134.308,140.400 134.441 C 140.290 134.573,138.940 135.095,137.400 135.602 C 125.074 139.654,113.894 145.821,105.800 153.032 C 84.098 172.368,23.037 234.132,17.623 242.223 C 2.267 265.175,-3.056 290.835,2.026 317.400 C 4.960 332.731,13.594 350.504,23.918 362.462 C 49.054 391.577,84.186 404.665,120.444 398.421 C 133.659 396.145,153.864 386.935,162.802 379.113 C 185.544 359.211,252.800 290.738,252.800 287.486 C 252.800 287.300,248.955 287.489,245.000 287.870 C 235.070 288.827,226.182 288.702,217.600 287.482 C 216.830 287.373,215.242 287.177,214.072 287.048 C 212.902 286.919,211.774 286.707,211.566 286.579 C 211.357 286.450,210.465 286.273,209.584 286.185 C 208.702 286.097,207.220 285.810,206.290 285.545 C 205.361 285.281,204.370 285.021,204.089 284.966 C 203.537 284.860,200.175 283.877,197.069 282.914 L 195.139 282.315 186.269 291.057 C 181.391 295.865,177.130 300.124,176.800 300.521 C 175.227 302.415,142.545 334.119,136.200 339.906 C 127.361 347.969,120.508 351.679,113.528 352.183 C 112.498 352.258,111.470 352.433,111.244 352.573 C 111.017 352.713,109.970 352.832,108.916 352.838 C 96.323 352.910,94.448 352.877,93.962 352.576 C 93.727 352.431,92.784 352.263,91.867 352.203 C 77.325 351.257,57.572 334.638,50.478 317.380 C 49.040 313.882,47.472 308.110,47.758 307.365 C 47.877 307.054,47.780 306.800,47.542 306.800 C 47.287 306.800,47.183 306.299,47.288 305.582 C 47.386 304.913,47.317 304.272,47.133 304.159 C 46.759 303.927,46.667 293.466,47.037 293.097 C 47.167 292.966,47.336 291.951,47.413 290.840 C 47.761 285.807,51.156 276.187,54.203 271.600 C 59.162 264.133,124.421 198.026,136.315 188.421 C 151.372 176.260,174.465 174.240,192.199 183.533 C 194.903 184.950,196.126 185.823,205.200 192.805 C 214.410 199.892,221.899 201.356,229.867 197.627 C 237.330 194.135,244.000 185.633,244.000 179.613 C 244.000 178.946,244.135 178.400,244.300 178.400 C 244.621 178.400,244.595 174.200,244.268 173.200 C 244.160 172.870,243.866 171.721,243.616 170.646 C 241.261 160.531,221.686 144.264,203.800 137.558 C 201.820 136.816,200.140 136.070,200.066 135.902 C 199.992 135.733,199.798 135.678,199.635 135.779 C 199.471 135.880,197.822 135.548,195.969 135.041 C 194.116 134.534,190.350 133.711,187.600 133.210 C 184.850 132.710,182.330 132.207,182.000 132.091 C 181.670 131.976,180.998 131.920,180.507 131.968 C 180.015 132.016,179.390 131.918,179.118 131.749 C 178.845 131.581,177.947 131.492,177.121 131.551 C 176.296 131.611,175.404 131.526,175.141 131.363 C 174.877 131.200,173.477 131.026,172.031 130.976 C 170.584 130.926,167.780 130.781,165.800 130.654 C 163.794 130.525,161.669 130.599,161.000 130.820 " stroke="none" fill="#040404" fill-rule="evenodd"></path><path id="path1" d="M304.900 0.276 C 305.285 0.376,305.915 0.376,306.300 0.276 C 306.685 0.175,306.370 0.093,305.600 0.093 C 304.830 0.093,304.515 0.175,304.900 0.276 M258.000 8.000 C 257.230 8.422,256.780 8.766,257.000 8.766 C 257.220 8.766,258.030 8.422,258.800 8.000 C 259.570 7.578,260.020 7.234,259.800 7.234 C 259.580 7.234,258.770 7.578,258.000 8.000 M253.059 10.246 C 251.552 11.019,250.393 11.726,250.483 11.816 C 250.573 11.907,251.986 11.270,253.624 10.401 C 255.261 9.532,256.420 8.825,256.200 8.830 C 255.980 8.835,254.567 9.472,253.059 10.246 M340.433 8.951 C 340.842 9.321,344.000 10.795,344.000 10.616 C 344.000 10.389,340.981 8.800,340.549 8.800 C 340.394 8.800,340.342 8.868,340.433 8.951 M345.200 11.339 C 345.200 11.619,350.093 14.440,350.271 14.263 C 350.362 14.172,349.663 13.650,348.718 13.104 C 346.238 11.669,345.200 11.149,345.200 11.339 M244.171 15.371 C 243.748 15.681,243.491 16.025,243.601 16.135 C 243.711 16.245,244.148 16.081,244.571 15.771 C 244.995 15.462,245.252 15.118,245.142 15.008 C 245.032 14.898,244.595 15.062,244.171 15.371 M352.000 15.490 C 352.000 15.665,352.360 16.032,352.800 16.307 C 353.243 16.584,353.600 16.633,353.600 16.417 C 353.600 16.203,353.240 15.835,352.800 15.600 C 352.360 15.365,352.000 15.315,352.000 15.490 M239.147 18.623 C 238.166 19.138,237.270 20.418,237.913 20.386 C 238.374 20.363,240.587 18.453,240.384 18.253 C 240.283 18.153,239.726 18.319,239.147 18.623 M356.800 18.702 C 356.800 18.922,357.070 19.326,357.400 19.600 C 357.735 19.878,358.000 19.921,358.000 19.698 C 358.000 19.478,357.730 19.074,357.400 18.800 C 357.065 18.522,356.800 18.479,356.800 18.702 M235.375 22.068 L 234.200 23.336 235.488 22.450 C 236.867 21.500,237.465 20.800,236.898 20.800 C 236.707 20.800,236.021 21.371,235.375 22.068 M360.800 22.200 C 361.074 22.530,361.478 22.800,361.698 22.800 C 361.921 22.800,361.878 22.535,361.600 22.200 C 361.326 21.870,360.922 21.600,360.702 21.600 C 360.479 21.600,360.522 21.865,360.800 22.200 M362.599 23.598 C 362.734 23.817,363.240 24.203,363.722 24.456 C 364.594 24.913,364.595 24.910,363.838 24.058 C 363.075 23.198,362.136 22.850,362.599 23.598 M229.988 27.084 L 227.400 29.769 229.800 27.617 C 231.120 26.434,232.464 25.226,232.786 24.933 C 233.108 24.640,233.193 24.400,232.974 24.400 C 232.756 24.400,231.412 25.608,229.988 27.084 M369.705 30.114 C 372.177 32.596,374.281 34.570,374.380 34.501 C 374.613 34.336,365.909 25.600,365.512 25.600 C 365.345 25.600,367.232 27.631,369.705 30.114 M221.176 35.345 C 219.293 37.135,215.963 40.487,213.776 42.793 L 209.800 46.985 215.400 41.725 C 222.028 35.500,225.017 32.480,224.776 32.254 C 224.679 32.164,223.059 33.555,221.176 35.345 M375.544 36.278 C 376.054 37.250,376.800 37.849,376.800 37.286 C 376.800 37.087,376.414 36.581,375.942 36.162 C 375.090 35.405,375.087 35.406,375.544 36.278 M377.200 38.276 C 377.200 38.496,377.560 39.002,378.000 39.400 C 378.440 39.798,378.800 39.944,378.800 39.724 C 378.800 39.504,378.440 38.998,378.000 38.600 C 377.560 38.202,377.200 38.056,377.200 38.276 M380.400 42.600 C 380.674 42.930,381.078 43.200,381.298 43.200 C 381.521 43.200,381.478 42.935,381.200 42.600 C 380.926 42.270,380.522 42.000,380.302 42.000 C 380.079 42.000,380.122 42.265,380.400 42.600 M383.697 47.193 C 384.414 48.289,385.156 49.189,385.346 49.193 C 385.536 49.197,385.401 48.750,385.046 48.200 C 384.691 47.650,384.109 46.750,383.754 46.200 C 383.399 45.650,382.947 45.200,382.751 45.200 C 382.555 45.200,382.980 46.097,383.697 47.193 M318.400 51.600 C 319.170 52.022,319.980 52.366,320.200 52.366 C 320.420 52.366,319.970 52.022,319.200 51.600 C 318.430 51.178,317.620 50.834,317.400 50.834 C 317.180 50.834,317.630 51.178,318.400 51.600 M386.809 51.900 C 386.814 52.065,387.185 52.650,387.633 53.200 L 388.448 54.200 387.814 52.900 C 387.211 51.665,386.789 51.245,386.809 51.900 M388.400 54.505 C 388.400 54.789,391.580 60.557,391.589 60.290 C 391.604 59.853,388.832 54.400,388.595 54.400 C 388.488 54.400,388.400 54.447,388.400 54.505 M330.918 59.364 C 331.972 60.428,332.960 61.174,333.112 61.022 C 333.379 60.754,332.721 60.140,330.200 58.303 C 329.482 57.780,329.770 58.206,330.918 59.364 M265.700 59.033 C 264.985 59.597,264.400 60.225,264.400 60.429 C 264.400 61.151,265.013 60.783,266.117 59.400 C 267.448 57.732,267.402 57.692,265.700 59.033 M261.760 62.748 C 259.893 64.123,257.780 66.313,258.055 66.589 C 258.164 66.697,259.501 65.628,261.026 64.212 C 263.999 61.453,264.280 60.893,261.760 62.748 M336.017 64.231 C 336.998 65.238,338.160 66.249,338.600 66.477 C 339.040 66.706,338.416 65.882,337.214 64.647 C 336.011 63.411,334.849 62.400,334.630 62.400 C 334.412 62.400,335.036 63.224,336.017 64.231 M339.876 67.900 C 339.781 68.065,340.259 68.650,340.937 69.200 L 342.170 70.200 341.210 68.900 C 340.165 67.485,340.128 67.458,339.876 67.900 M238.361 85.553 C 229.473 94.327,222.301 101.614,222.425 101.745 C 222.549 101.876,227.409 97.253,233.225 91.470 C 245.989 78.779,255.015 69.600,254.731 69.600 C 254.616 69.600,247.250 76.779,238.361 85.553 M177.054 79.473 C 172.741 83.803,169.305 87.439,169.419 87.552 C 169.668 87.801,174.865 82.697,180.874 76.300 C 187.438 69.314,185.896 70.594,177.054 79.473 M348.046 79.800 C 348.053 80.020,348.406 80.920,348.829 81.800 C 349.252 82.680,349.486 82.950,349.349 82.400 C 349.067 81.267,348.025 79.188,348.046 79.800 M161.435 95.421 C 159.254 97.501,157.585 99.318,157.725 99.458 C 157.866 99.599,158.258 99.484,158.596 99.203 C 159.340 98.586,165.747 91.592,165.543 91.619 C 165.464 91.630,163.616 93.340,161.435 95.421 M153.800 103.600 C 152.717 104.700,152.015 105.600,152.240 105.600 C 152.623 105.600,153.571 104.662,155.374 102.500 C 156.670 100.945,155.851 101.518,153.800 103.600 M150.000 107.800 C 149.483 108.350,149.227 108.794,149.430 108.787 C 149.772 108.776,151.421 106.800,151.088 106.800 C 151.006 106.800,150.517 107.250,150.000 107.800 M147.600 111.200 C 147.151 112.080,146.874 112.800,146.984 112.800 C 147.094 112.800,147.551 112.080,148.000 111.200 C 148.449 110.320,148.726 109.600,148.616 109.600 C 148.506 109.600,148.049 110.320,147.600 111.200 M399.693 111.200 C 399.693 111.970,399.775 112.285,399.876 111.900 C 399.976 111.515,399.976 110.885,399.876 110.500 C 399.775 110.115,399.693 110.430,399.693 111.200 M163.100 112.289 C 163.815 112.378,164.985 112.378,165.700 112.289 C 166.415 112.201,165.830 112.128,164.400 112.128 C 162.970 112.128,162.385 112.201,163.100 112.289 M168.700 112.289 C 169.415 112.378,170.585 112.378,171.300 112.289 C 172.015 112.201,171.430 112.128,170.000 112.128 C 168.570 112.128,167.985 112.201,168.700 112.289 M345.169 129.258 C 344.917 129.729,343.984 130.903,343.097 131.866 C 342.209 132.829,341.574 133.707,341.685 133.818 C 341.796 133.929,342.513 133.251,343.278 132.310 C 344.961 130.241,346.176 128.400,345.860 128.400 C 345.733 128.400,345.422 128.786,345.169 129.258 M138.227 134.359 C 137.732 134.553,137.614 134.761,137.899 134.938 C 138.144 135.089,138.460 135.027,138.600 134.800 C 138.740 134.573,139.010 134.483,139.200 134.600 C 139.390 134.717,139.658 134.630,139.796 134.407 C 140.085 133.940,139.354 133.918,138.227 134.359 M338.355 136.758 C 336.950 138.055,335.937 139.256,336.104 139.429 C 336.446 139.780,338.270 138.158,340.071 135.900 C 341.735 133.813,341.321 134.020,338.355 136.758 M135.400 135.392 C 134.343 135.882,135.200 136.045,136.400 135.582 C 136.510 135.540,136.735 135.527,136.900 135.553 C 137.065 135.579,137.200 135.420,137.200 135.200 C 137.200 134.680,136.859 134.716,135.400 135.392 M200.567 135.900 C 200.732 136.065,201.032 136.222,201.233 136.250 C 201.435 136.278,201.645 136.336,201.700 136.380 C 201.755 136.424,202.250 136.524,202.800 136.604 C 203.707 136.734,203.689 136.696,202.600 136.192 C 201.301 135.590,200.082 135.415,200.567 135.900 M131.600 136.800 C 131.115 137.114,131.172 137.189,131.900 137.194 C 132.395 137.197,132.800 137.020,132.800 136.800 C 132.800 136.299,132.376 136.299,131.600 136.800 M129.700 137.465 C 128.881 137.795,129.133 138.343,130.000 138.116 C 130.440 138.001,130.800 137.748,130.800 137.553 C 130.800 137.172,130.488 137.147,129.700 137.465 M205.200 137.557 C 205.200 138.001,206.431 138.503,206.746 138.188 C 206.873 138.061,206.712 137.789,206.388 137.584 C 205.640 137.111,205.200 137.101,205.200 137.557 M207.200 138.326 C 207.200 138.609,209.704 140.000,210.214 140.000 C 210.878 140.000,210.176 139.241,208.986 138.674 C 207.378 137.907,207.200 137.873,207.200 138.326 M126.812 138.784 C 126.488 138.989,126.327 139.261,126.454 139.388 C 126.769 139.703,128.000 139.201,128.000 138.757 C 128.000 138.301,127.560 138.311,126.812 138.784 M391.275 143.419 C 390.070 145.900,390.205 146.247,391.446 143.861 C 392.001 142.794,392.387 141.853,392.303 141.770 C 392.219 141.686,391.757 142.428,391.275 143.419 M328.814 146.986 C 326.078 149.729,323.930 152.063,324.041 152.174 C 324.152 152.285,326.451 150.041,329.150 147.188 C 331.850 144.335,333.997 142.000,333.923 142.000 C 333.849 142.000,331.550 144.244,328.814 146.986 M115.274 145.062 C 112.825 146.527,110.231 148.253,109.510 148.898 C 108.473 149.826,108.639 149.764,110.306 148.597 C 111.464 147.787,114.251 146.061,116.499 144.762 C 118.748 143.463,120.394 142.400,120.157 142.400 C 119.921 142.400,117.723 143.598,115.274 145.062 M221.738 146.636 C 222.576 147.205,223.348 147.586,223.452 147.481 C 223.665 147.268,221.100 145.600,220.560 145.600 C 220.370 145.600,220.900 146.066,221.738 146.636 M224.909 148.800 C 225.469 149.240,226.078 149.596,226.263 149.591 C 226.700 149.580,224.713 148.021,224.246 148.009 C 224.051 148.004,224.350 148.360,224.909 148.800 M105.578 152.264 L 104.200 153.728 105.700 152.564 C 106.525 151.924,107.200 151.265,107.200 151.100 C 107.200 150.605,107.017 150.736,105.578 152.264 M230.599 153.198 C 230.734 153.417,231.240 153.803,231.722 154.056 C 232.594 154.513,232.595 154.510,231.838 153.658 C 231.075 152.798,230.136 152.450,230.599 153.198 M100.200 157.076 C 98.346 158.790,97.805 159.462,98.600 159.065 C 99.852 158.438,103.480 154.939,103.175 154.652 C 103.079 154.561,101.740 155.652,100.200 157.076 M385.033 155.057 C 384.652 156.050,385.072 156.186,385.582 155.234 C 385.827 154.775,385.861 154.400,385.657 154.400 C 385.453 154.400,385.172 154.696,385.033 155.057 M233.600 155.427 C 233.600 155.647,234.590 156.805,235.800 158.000 C 237.010 159.195,238.000 159.993,238.000 159.773 C 238.000 159.553,237.010 158.395,235.800 157.200 C 234.590 156.005,233.600 155.207,233.600 155.427 M307.800 168.362 C 294.707 181.407,291.040 185.202,295.519 181.071 C 298.551 178.274,319.418 157.199,319.152 157.202 C 319.068 157.203,313.960 162.225,307.800 168.362 M380.723 161.100 C 379.713 162.276,379.397 162.969,380.038 162.601 C 380.987 162.056,382.000 161.094,382.000 160.738 C 382.000 160.176,381.361 160.357,380.723 161.100 M92.392 164.670 L 88.600 168.541 92.700 164.815 C 94.955 162.766,96.800 161.024,96.800 160.945 C 96.800 160.366,95.692 161.303,92.392 164.670 M377.183 165.282 L 375.870 167.000 377.415 165.513 C 378.265 164.696,378.856 163.922,378.728 163.795 C 378.601 163.667,377.905 164.336,377.183 165.282 M372.417 170.512 L 370.278 173.000 372.620 170.714 C 373.908 169.457,374.871 168.338,374.760 168.226 C 374.648 168.115,373.594 169.143,372.417 170.512 M81.380 175.146 C 74.794 181.459,71.057 185.626,76.200 180.920 C 81.121 176.418,85.817 171.679,85.578 171.457 C 85.480 171.366,83.591 173.026,81.380 175.146 M244.663 174.300 C 244.326 174.848,244.474 177.600,244.840 177.600 C 245.038 177.600,245.200 176.790,245.200 175.800 C 245.200 174.067,245.055 173.662,244.663 174.300 M364.966 178.100 C 363.418 179.695,361.892 181.351,361.576 181.781 C 360.357 183.434,362.649 181.444,365.585 178.300 C 369.244 174.381,368.735 174.216,364.966 178.100 M166.700 177.889 C 167.415 177.978,168.585 177.978,169.300 177.889 C 170.015 177.801,169.430 177.728,168.000 177.728 C 166.570 177.728,165.985 177.801,166.700 177.889 M147.100 182.065 C 146.189 182.398,145.540 183.200,146.181 183.200 C 146.692 183.200,148.400 182.227,148.400 181.936 C 148.400 181.751,148.355 181.614,148.300 181.632 C 148.245 181.649,147.705 181.844,147.100 182.065 M189.200 182.752 C 189.200 182.923,190.133 183.499,191.273 184.032 C 192.414 184.564,194.325 185.684,195.520 186.520 C 196.715 187.356,197.778 187.955,197.883 187.850 C 198.134 187.599,192.259 183.719,190.542 183.002 C 189.804 182.693,189.200 182.581,189.200 182.752 M142.000 184.792 C 142.000 185.008,141.550 185.298,141.000 185.436 C 140.450 185.574,140.000 185.862,140.000 186.077 C 140.000 186.291,140.135 186.401,140.300 186.320 C 142.763 185.121,143.551 184.400,142.400 184.400 C 142.180 184.400,142.000 184.577,142.000 184.792 M351.631 192.143 L 345.462 198.600 351.813 192.316 C 355.307 188.860,358.083 185.954,357.983 185.858 C 357.882 185.763,355.024 188.591,351.631 192.143 M241.353 187.700 C 241.190 187.975,240.781 188.633,240.442 189.162 C 240.007 189.843,239.975 190.075,240.334 189.955 C 241.008 189.731,242.596 187.200,242.063 187.200 C 241.834 187.200,241.515 187.425,241.353 187.700 M198.400 188.386 C 198.400 188.598,198.805 188.984,199.300 189.244 C 200.195 189.714,200.196 189.712,199.438 188.858 C 198.591 187.905,198.400 187.818,198.400 188.386 M134.025 190.808 C 133.269 191.454,132.741 192.074,132.852 192.186 C 132.964 192.297,133.663 191.761,134.406 190.994 C 136.047 189.300,135.883 189.220,134.025 190.808 M237.418 192.782 L 235.436 195.000 237.599 192.914 C 238.789 191.767,239.680 190.769,239.581 190.697 C 239.481 190.624,238.508 191.563,237.418 192.782 M280.150 195.542 C 277.923 197.664,275.133 200.476,273.950 201.792 L 271.800 204.184 275.000 201.321 C 279.028 197.719,284.615 192.079,284.379 191.854 C 284.280 191.760,282.378 193.420,280.150 195.542 M56.447 199.647 C 52.248 203.881,48.907 207.440,49.022 207.556 C 49.138 207.671,52.682 204.315,56.899 200.099 C 61.115 195.882,64.456 192.323,64.323 192.190 C 64.190 192.057,60.646 195.412,56.447 199.647 M128.800 195.600 C 127.370 196.905,126.386 197.979,126.613 197.987 C 126.839 197.994,128.094 196.920,129.400 195.600 C 132.424 192.544,132.148 192.544,128.800 195.600 M211.200 197.600 C 211.970 198.022,212.780 198.366,213.000 198.366 C 213.220 198.366,212.770 198.022,212.000 197.600 C 211.230 197.178,210.420 196.834,210.200 196.834 C 209.980 196.834,210.430 197.178,211.200 197.600 M218.569 199.949 C 218.828 200.368,222.206 200.327,222.633 199.900 C 222.798 199.735,221.903 199.600,220.643 199.600 C 219.383 199.600,218.450 199.757,218.569 199.949 M101.793 222.300 C 90.136 233.905,78.978 245.110,76.999 247.200 L 73.400 251.000 76.963 247.600 C 81.087 243.666,123.200 201.520,123.200 201.328 C 123.200 201.011,121.838 202.345,101.793 222.300 M168.100 203.212 C 166.945 203.874,166.000 204.504,166.000 204.612 C 166.000 204.769,170.155 202.606,170.767 202.130 C 171.525 201.539,169.786 202.245,168.100 203.212 M187.633 202.149 C 188.045 202.517,190.400 203.600,190.400 203.421 C 190.400 203.190,188.182 202.000,187.753 202.000 C 187.596 202.000,187.542 202.067,187.633 202.149 M268.185 207.266 L 266.200 209.332 268.500 207.390 C 269.765 206.321,270.800 205.392,270.800 205.324 C 270.800 204.819,269.879 205.503,268.185 207.266 M329.800 214.000 C 325.200 218.604,321.569 222.502,321.730 222.663 C 321.891 222.824,322.344 222.606,322.737 222.178 C 323.130 221.750,326.846 217.936,330.994 213.701 C 335.142 209.467,338.452 205.919,338.349 205.816 C 338.247 205.714,334.400 209.396,329.800 214.000 M160.759 209.500 C 158.809 211.535,158.034 212.601,158.685 212.352 C 159.056 212.210,162.945 207.600,162.694 207.600 C 162.631 207.600,161.760 208.455,160.759 209.500 M200.600 211.054 C 203.323 213.387,203.676 213.641,204.025 213.523 C 204.227 213.456,203.402 212.635,202.193 211.700 C 199.805 209.854,198.655 209.387,200.600 211.054 M263.970 211.058 L 263.000 212.115 264.100 211.412 C 264.705 211.025,265.200 210.549,265.200 210.354 C 265.200 209.810,265.018 209.914,263.970 211.058 M157.614 213.574 C 157.112 214.511,157.094 214.800,157.536 214.800 C 157.720 214.800,158.077 214.350,158.327 213.800 C 158.863 212.625,158.229 212.424,157.614 213.574 M260.000 214.000 C 259.683 214.196,259.556 214.489,259.718 214.652 C 259.881 214.814,260.223 214.737,260.480 214.480 C 261.084 213.876,260.747 213.538,260.000 214.000 M36.044 220.483 C 32.958 223.609,30.520 226.254,30.628 226.361 C 30.866 226.599,35.458 222.106,39.273 217.900 C 43.624 213.103,42.226 214.222,36.044 220.483 M256.000 216.390 C 254.880 216.996,254.780 217.135,255.500 217.088 C 255.995 217.056,256.400 216.877,256.400 216.691 C 256.400 216.505,256.535 216.435,256.700 216.534 C 256.865 216.634,257.232 216.465,257.516 216.158 C 258.216 215.400,257.679 215.483,256.000 216.390 M252.412 217.984 C 252.088 218.189,251.927 218.461,252.054 218.588 C 252.369 218.903,253.600 218.401,253.600 217.957 C 253.600 217.501,253.160 217.511,252.412 217.984 M155.200 224.624 C 155.200 225.471,155.362 225.947,155.600 225.800 C 155.820 225.664,156.000 225.023,156.000 224.376 C 156.000 223.729,155.820 223.200,155.600 223.200 C 155.380 223.200,155.200 223.841,155.200 224.624 M26.210 230.790 C 24.910 232.104,23.932 233.266,24.038 233.372 C 24.144 233.477,25.270 232.402,26.540 230.982 C 29.429 227.752,29.294 227.673,26.210 230.790 M308.854 234.768 C 305.914 237.589,303.664 239.967,303.854 240.055 C 304.044 240.143,306.533 237.826,309.383 234.907 C 312.234 231.988,314.484 229.609,314.383 229.621 C 314.283 229.632,311.794 231.948,308.854 234.768 M21.875 235.522 C 20.824 236.619,20.423 237.480,21.181 237.012 C 21.612 236.745,23.337 234.400,23.102 234.400 C 23.018 234.400,22.466 234.905,21.875 235.522 M19.445 238.212 C 18.461 239.196,17.885 240.400,18.398 240.400 C 18.633 240.400,18.943 240.085,19.088 239.700 C 19.232 239.315,19.631 238.790,19.975 238.533 C 20.318 238.276,20.485 237.952,20.347 237.814 C 20.209 237.675,19.803 237.855,19.445 238.212 M299.456 243.634 C 298.435 244.533,297.600 245.451,297.600 245.675 C 297.600 246.133,300.314 243.865,301.123 242.732 C 301.924 241.610,301.487 241.846,299.456 243.634 M167.687 245.815 C 168.504 246.665,169.278 247.256,169.405 247.128 C 169.533 247.001,168.864 246.305,167.918 245.583 L 166.200 244.270 167.687 245.815 M171.200 248.792 C 173.191 250.565,179.612 254.921,179.864 254.670 C 179.980 254.554,179.563 254.193,178.937 253.869 C 178.312 253.544,176.213 252.094,174.274 250.647 C 170.231 247.629,169.186 246.999,171.200 248.792 M9.979 253.642 C 8.863 255.865,8.014 257.748,8.092 257.826 C 8.170 257.903,9.170 256.085,10.315 253.784 C 11.459 251.483,12.308 249.600,12.201 249.600 C 12.095 249.600,11.095 251.419,9.979 253.642 M287.019 253.616 C 285.270 254.707,283.995 255.600,284.186 255.600 C 284.594 255.600,290.400 252.023,290.400 251.772 C 290.400 251.507,290.398 251.508,287.019 253.616 M67.376 256.900 C 64.564 259.858,63.299 261.379,64.000 260.959 C 64.953 260.389,70.172 254.800,69.752 254.800 C 69.543 254.800,68.474 255.745,67.376 256.900 M281.462 256.847 C 280.616 257.293,280.006 257.739,280.105 257.838 C 280.204 257.938,281.076 257.567,282.043 257.014 C 284.134 255.819,283.667 255.684,281.462 256.847 M274.412 260.384 C 274.088 260.589,273.927 260.861,274.054 260.988 C 274.369 261.303,275.600 260.801,275.600 260.357 C 275.600 259.901,275.160 259.911,274.412 260.384 M190.800 260.736 C 190.800 261.027,192.508 262.000,193.019 262.000 C 193.595 262.000,193.048 261.259,192.181 260.864 C 190.967 260.311,190.800 260.295,190.800 260.736 M194.000 262.400 C 194.776 262.901,195.200 262.901,195.200 262.400 C 195.200 262.180,194.795 262.003,194.300 262.006 C 193.572 262.011,193.515 262.086,194.000 262.400 M60.744 263.900 C 59.234 265.723,58.966 266.173,59.600 265.817 C 60.534 265.294,62.000 263.897,62.000 263.530 C 62.000 262.973,61.355 263.163,60.744 263.900 M197.850 263.518 C 197.713 263.740,198.168 264.120,198.860 264.361 C 200.444 264.913,200.919 264.916,200.584 264.373 C 200.439 264.139,200.219 264.047,200.097 264.170 C 199.974 264.293,199.632 264.193,199.337 263.948 C 199.042 263.703,198.797 263.659,198.794 263.851 C 198.791 264.043,198.633 263.956,198.444 263.657 C 198.230 263.320,198.005 263.268,197.850 263.518 M267.200 263.600 C 267.200 264.101,267.624 264.101,268.400 263.600 C 268.885 263.286,268.828 263.211,268.100 263.206 C 267.605 263.203,267.200 263.380,267.200 263.600 M57.406 267.888 L 56.704 269.000 57.630 268.111 C 58.139 267.622,58.455 267.122,58.332 266.999 C 58.209 266.876,57.792 267.276,57.406 267.888 M226.500 269.876 C 226.885 269.976,227.515 269.976,227.900 269.876 C 228.285 269.775,227.970 269.693,227.200 269.693 C 226.430 269.693,226.115 269.775,226.500 269.876 M175.882 300.300 C 158.546 317.659,155.197 321.072,158.404 318.112 C 163.070 313.807,194.925 282.012,194.579 282.007 C 194.348 282.003,185.934 290.235,175.882 300.300 M252.900 288.100 C 252.470 289.275,252.480 289.326,253.012 288.624 C 253.521 287.952,253.821 286.800,253.488 286.800 C 253.426 286.800,253.161 287.385,252.900 288.100 M224.900 287.876 C 225.285 287.976,225.915 287.976,226.300 287.876 C 226.685 287.775,226.370 287.693,225.600 287.693 C 224.830 287.693,224.515 287.775,224.900 287.876 M249.032 293.113 L 248.264 294.200 249.332 293.230 C 250.454 292.211,250.593 291.992,250.100 292.013 C 249.935 292.019,249.454 292.514,249.032 293.113 M47.344 298.400 C 47.344 300.490,47.412 301.345,47.494 300.300 C 47.576 299.255,47.576 297.545,47.494 296.500 C 47.412 295.455,47.344 296.310,47.344 298.400 M246.183 296.300 L 245.071 297.800 246.536 296.422 C 248.095 294.953,248.200 294.800,247.647 294.800 C 247.454 294.800,246.795 295.475,246.183 296.300 M242.280 300.365 C 240.127 302.748,239.671 303.951,241.678 301.956 C 243.871 299.776,244.618 298.800,244.096 298.800 C 243.874 298.800,243.057 299.504,242.280 300.365 M236.191 307.091 L 233.867 309.800 236.415 307.315 C 237.816 305.948,238.862 304.728,238.739 304.605 C 238.615 304.482,237.469 305.600,236.191 307.091 M227.268 316.411 C 225.215 318.605,223.685 320.376,223.868 320.346 C 224.369 320.265,231.814 312.398,231.378 312.411 C 231.170 312.417,229.321 314.217,227.268 316.411 M50.834 317.000 C 50.834 317.220,51.178 318.030,51.600 318.800 C 52.022 319.570,52.366 320.020,52.366 319.800 C 52.366 319.580,52.022 318.770,51.600 318.000 C 51.178 317.230,50.834 316.780,50.834 317.000 M203.857 340.062 C 195.528 348.388,188.846 355.200,189.008 355.200 C 189.682 355.200,219.529 325.357,219.158 325.053 C 219.071 324.982,212.186 331.736,203.857 340.062 M147.191 328.687 L 143.800 332.174 146.800 329.413 C 148.450 327.895,150.155 326.326,150.589 325.926 C 151.023 325.527,151.199 325.200,150.980 325.200 C 150.761 325.200,149.056 326.769,147.191 328.687 M60.000 331.872 C 60.000 332.539,63.517 336.199,63.848 335.876 C 64.031 335.698,63.240 334.646,62.090 333.537 C 60.941 332.429,60.000 331.680,60.000 331.872 M139.189 335.981 C 137.985 337.046,137.126 338.047,137.280 338.206 C 137.435 338.364,138.513 337.586,139.676 336.476 C 142.423 333.856,142.035 333.462,139.189 335.981 M65.200 337.563 C 65.200 337.762,66.145 338.706,67.300 339.659 C 69.400 341.393,69.301 340.948,67.042 338.500 C 65.847 337.204,65.200 336.875,65.200 337.563 M133.600 341.324 L 132.200 342.980 133.900 341.657 C 134.835 340.929,135.600 340.168,135.600 339.966 C 135.600 339.265,134.991 339.678,133.600 341.324 M8.809 340.109 C 8.782 341.004,13.973 350.560,14.306 350.228 C 14.420 350.113,14.299 349.760,14.036 349.443 C 13.773 349.126,12.491 346.827,11.188 344.333 C 9.885 341.840,8.815 339.939,8.809 340.109 M129.600 344.868 C 128.610 345.767,128.340 346.125,129.000 345.663 C 131.073 344.211,132.215 343.217,131.800 343.226 C 131.580 343.230,130.590 343.970,129.600 344.868 M80.800 348.600 C 81.350 348.914,81.980 349.172,82.200 349.172 C 82.420 349.172,82.150 348.914,81.600 348.600 C 81.050 348.286,80.420 348.028,80.200 348.028 C 79.980 348.028,80.250 348.286,80.800 348.600 M15.940 353.293 C 16.391 354.004,16.963 354.654,17.212 354.737 C 17.461 354.820,17.246 354.241,16.733 353.449 C 16.220 352.658,15.647 352.008,15.461 352.005 C 15.274 352.002,15.490 352.582,15.940 353.293 M18.800 357.400 C 19.074 357.730,19.478 358.000,19.698 358.000 C 19.921 358.000,19.878 357.735,19.600 357.400 C 19.326 357.070,18.922 356.800,18.702 356.800 C 18.479 356.800,18.522 357.065,18.800 357.400 M180.770 362.755 C 178.697 364.710,177.109 366.424,177.242 366.563 C 177.460 366.793,184.800 359.822,184.800 359.385 C 184.800 358.995,184.431 359.303,180.770 362.755 M21.600 360.702 C 21.600 360.922,21.870 361.326,22.200 361.600 C 22.535 361.878,22.800 361.921,22.800 361.698 C 22.800 361.478,22.530 361.074,22.200 360.800 C 21.865 360.522,21.600 360.479,21.600 360.702 M23.200 362.702 C 23.200 362.893,23.771 363.579,24.468 364.225 L 25.736 365.400 24.850 364.112 C 23.900 362.733,23.200 362.135,23.200 362.702 M26.400 366.218 C 26.400 366.740,32.714 373.019,32.976 372.758 C 33.086 372.648,31.651 371.041,29.788 369.188 C 27.924 367.334,26.400 365.998,26.400 366.218 M172.235 371.018 C 170.935 372.218,170.041 373.200,170.249 373.200 C 170.457 373.200,171.605 372.210,172.800 371.000 C 175.573 368.192,175.288 368.201,172.235 371.018 M34.770 374.546 C 35.303 375.126,35.910 375.600,36.119 375.600 C 36.656 375.600,35.628 374.440,34.633 373.924 C 33.890 373.538,33.904 373.605,34.770 374.546 M167.000 375.809 C 166.120 376.568,165.590 377.191,165.822 377.194 C 166.053 377.197,166.854 376.570,167.600 375.800 C 169.319 374.027,169.063 374.031,167.000 375.809 M38.000 377.208 C 38.770 377.894,39.760 378.635,40.200 378.854 C 40.640 379.072,40.370 378.695,39.600 378.016 C 38.830 377.336,37.840 376.596,37.400 376.371 C 36.960 376.145,37.230 376.522,38.000 377.208 M163.089 379.188 C 162.380 379.842,161.350 380.726,160.800 381.154 C 160.250 381.581,159.942 382.073,160.114 382.247 C 160.287 382.420,161.456 381.536,162.710 380.281 C 165.074 377.918,165.358 377.097,163.089 379.188 M44.400 381.945 C 44.400 382.372,49.296 385.638,49.552 385.381 C 49.767 385.166,49.992 385.345,46.900 383.271 C 45.525 382.348,44.400 381.752,44.400 381.945 M151.600 387.233 L 150.600 388.048 151.900 387.414 C 152.615 387.065,153.200 386.694,153.200 386.590 C 153.200 386.192,152.563 386.448,151.600 387.233 M52.000 386.992 C 52.000 387.097,52.720 387.551,53.600 388.000 C 55.583 389.012,55.700 388.774,53.777 387.640 C 52.312 386.775,52.000 386.661,52.000 386.992 M55.600 388.993 C 55.600 389.271,59.483 391.200,60.043 391.200 C 60.301 391.200,59.452 390.662,58.156 390.005 C 55.601 388.709,55.600 388.709,55.600 388.993 M144.000 391.000 C 143.010 391.530,142.380 391.964,142.600 391.964 C 142.820 391.964,143.810 391.530,144.800 391.000 C 145.790 390.470,146.420 390.036,146.200 390.036 C 145.980 390.036,144.990 390.470,144.000 391.000 M140.400 392.600 C 139.850 392.914,139.580 393.172,139.800 393.172 C 140.020 393.172,140.650 392.914,141.200 392.600 C 141.750 392.286,142.020 392.028,141.800 392.028 C 141.580 392.028,140.950 392.286,140.400 392.600 " stroke="none" fill="#d3d3d3" fill-rule="evenodd"></path><path id="path2" d="M293.100 0.282 C 293.595 0.378,294.405 0.378,294.900 0.282 C 295.395 0.187,294.990 0.109,294.000 0.109 C 293.010 0.109,292.605 0.187,293.100 0.282 M300.300 0.282 C 300.795 0.378,301.605 0.378,302.100 0.282 C 302.595 0.187,302.190 0.109,301.200 0.109 C 300.210 0.109,299.805 0.187,300.300 0.282 M264.600 5.814 C 263.600 6.296,263.566 6.351,264.400 6.148 C 265.533 5.871,266.807 5.221,266.200 5.230 C 265.980 5.233,265.260 5.496,264.600 5.814 M331.600 5.717 C 331.907 6.049,336.000 7.614,336.000 7.400 C 336.000 7.194,333.913 6.275,332.365 5.798 C 331.834 5.634,331.490 5.598,331.600 5.717 M336.400 7.698 C 336.723 8.018,340.400 9.571,340.400 9.388 C 340.400 9.296,339.905 8.969,339.300 8.661 C 338.102 8.052,336.078 7.380,336.400 7.698 M257.500 8.629 C 256.895 8.957,256.400 9.314,256.400 9.423 C 256.400 9.532,256.895 9.371,257.500 9.065 C 258.105 8.760,258.870 8.409,259.200 8.286 C 259.733 8.088,259.733 8.061,259.200 8.048 C 258.870 8.039,258.105 8.301,257.500 8.629 M344.000 11.400 C 344.550 11.714,345.180 11.972,345.400 11.972 C 345.620 11.972,345.350 11.714,344.800 11.400 C 344.250 11.086,343.620 10.828,343.400 10.828 C 343.180 10.828,343.450 11.086,344.000 11.400 M231.387 26.500 L 229.000 29.000 231.500 26.613 C 232.875 25.299,234.000 24.174,234.000 24.113 C 234.000 23.817,233.605 24.178,231.387 26.500 M369.400 30.400 C 371.592 32.600,373.475 34.400,373.585 34.400 C 373.695 34.400,371.992 32.600,369.800 30.400 C 367.608 28.200,365.725 26.400,365.615 26.400 C 365.505 26.400,367.208 28.200,369.400 30.400 M223.991 33.500 L 220.600 37.000 224.100 33.609 C 227.351 30.459,227.782 30.000,227.491 30.000 C 227.431 30.000,225.856 31.575,223.991 33.500 M297.700 47.087 C 298.305 47.178,299.295 47.178,299.900 47.087 C 300.505 46.995,300.010 46.920,298.800 46.920 C 297.590 46.920,297.095 46.995,297.700 47.087 M205.792 51.300 L 201.800 55.400 205.900 51.408 C 209.708 47.699,210.182 47.200,209.892 47.200 C 209.833 47.200,207.988 49.045,205.792 51.300 M313.400 49.200 C 313.536 49.420,314.042 49.587,314.524 49.572 C 315.369 49.545,315.371 49.531,314.600 49.200 C 313.499 48.727,313.108 48.727,313.400 49.200 M317.376 50.578 C 317.804 50.920,318.434 51.186,318.776 51.168 C 319.315 51.141,319.318 51.107,318.800 50.914 C 318.470 50.792,317.840 50.526,317.400 50.324 C 316.613 49.962,316.612 49.966,317.376 50.578 M276.600 51.414 C 275.595 51.898,275.563 51.953,276.400 51.751 C 276.950 51.619,277.571 51.350,277.780 51.155 C 278.298 50.671,278.014 50.733,276.600 51.414 M273.900 52.629 C 272.405 53.440,272.496 53.778,274.000 53.000 C 274.660 52.659,275.200 52.294,275.200 52.190 C 275.200 51.932,275.157 51.947,273.900 52.629 M190.793 66.300 L 186.600 70.600 190.900 66.407 C 193.265 64.101,195.200 62.166,195.200 62.107 C 195.200 61.818,194.687 62.306,190.793 66.300 M257.389 66.500 L 254.600 69.400 257.500 66.611 C 259.095 65.077,260.400 63.772,260.400 63.711 C 260.400 63.417,259.980 63.806,257.389 66.500 M392.428 63.800 C 392.428 64.020,392.686 64.650,393.000 65.200 C 393.314 65.750,393.572 66.020,393.572 65.800 C 393.572 65.580,393.314 64.950,393.000 64.400 C 392.686 63.850,392.428 63.580,392.428 63.800 M346.889 76.600 C 347.307 77.721,349.282 81.600,349.435 81.600 C 349.724 81.600,348.429 78.716,347.554 77.412 C 347.106 76.746,346.807 76.380,346.889 76.600 M170.793 86.700 L 166.200 91.400 170.900 86.807 C 175.266 82.540,175.782 82.000,175.493 82.000 C 175.435 82.000,173.320 84.115,170.793 86.700 M223.398 100.099 C 214.819 108.733,210.794 112.851,214.452 109.251 C 218.111 105.650,221.261 102.751,221.452 102.807 C 221.644 102.864,222.012 102.495,222.270 101.989 C 222.529 101.482,226.487 97.317,231.066 92.733 C 235.646 88.150,239.304 84.400,239.195 84.400 C 239.085 84.400,231.977 91.464,223.398 100.099 M352.028 93.476 C 352.118 94.515,352.744 95.396,352.772 94.524 C 352.787 94.042,352.620 93.536,352.400 93.400 C 352.180 93.264,352.013 93.298,352.028 93.476 M399.693 96.000 C 399.693 96.770,399.775 97.085,399.876 96.700 C 399.976 96.315,399.976 95.685,399.876 95.300 C 399.775 94.915,399.693 95.230,399.693 96.000 M159.600 98.200 C 158.628 99.190,157.923 100.000,158.033 100.000 C 158.143 100.000,159.028 99.190,160.000 98.200 C 160.972 97.210,161.677 96.400,161.567 96.400 C 161.457 96.400,160.572 97.210,159.600 98.200 M352.468 102.222 C 352.475 104.932,352.606 106.295,352.811 105.800 C 353.266 104.707,353.274 99.136,352.822 98.422 C 352.589 98.054,352.461 99.429,352.468 102.222 M153.775 104.500 L 152.600 105.800 153.900 104.625 C 155.112 103.530,155.384 103.200,155.075 103.200 C 155.006 103.200,154.421 103.785,153.775 104.500 M399.701 107.000 C 399.705 107.880,399.787 108.193,399.883 107.695 C 399.979 107.198,399.975 106.478,399.875 106.095 C 399.775 105.713,399.696 106.120,399.701 107.000 M150.175 108.500 L 149.000 109.800 150.300 108.625 C 151.512 107.530,151.784 107.200,151.475 107.200 C 151.406 107.200,150.821 107.785,150.175 108.500 M352.446 109.867 C 352.421 110.124,352.284 110.664,352.141 111.067 C 351.940 111.636,351.994 111.697,352.379 111.342 C 352.652 111.091,352.789 110.551,352.684 110.142 C 352.579 109.734,352.472 109.610,352.446 109.867 M161.900 111.893 C 162.835 111.977,164.365 111.977,165.300 111.893 C 166.235 111.809,165.470 111.740,163.600 111.740 C 161.730 111.740,160.965 111.809,161.900 111.893 M167.800 111.800 C 168.020 111.876,170.000 112.012,172.200 112.103 C 174.400 112.194,175.750 112.136,175.200 111.974 C 174.238 111.691,166.983 111.520,167.800 111.800 M147.214 112.774 C 146.683 113.767,146.693 114.000,147.267 114.000 C 147.523 114.000,147.620 113.886,147.481 113.747 C 147.342 113.608,147.408 113.158,147.628 112.747 C 147.848 112.336,147.938 112.000,147.828 112.000 C 147.718 112.000,147.442 112.348,147.214 112.774 M155.200 112.395 C 154.791 112.655,155.110 112.699,156.200 112.532 C 158.177 112.229,158.514 111.998,156.967 112.006 C 156.325 112.009,155.530 112.184,155.200 112.395 M176.833 112.143 C 176.925 112.222,177.720 112.397,178.600 112.532 C 179.690 112.699,180.009 112.655,179.600 112.395 C 179.053 112.046,176.445 111.809,176.833 112.143 M183.300 113.076 C 183.685 113.176,184.315 113.176,184.700 113.076 C 185.085 112.975,184.770 112.893,184.000 112.893 C 183.230 112.893,182.915 112.975,183.300 113.076 M347.400 126.400 C 347.059 127.060,346.869 127.600,346.979 127.600 C 347.089 127.600,347.459 127.060,347.800 126.400 C 348.141 125.740,348.331 125.200,348.221 125.200 C 348.111 125.200,347.741 125.740,347.400 126.400 M158.600 130.800 L 157.400 131.105 158.800 131.113 C 159.570 131.117,160.650 130.976,161.200 130.800 C 162.599 130.352,160.361 130.352,158.600 130.800 M168.800 130.800 C 169.350 130.976,170.520 131.117,171.400 131.113 C 172.922 131.106,172.942 131.090,171.800 130.800 C 170.060 130.357,167.418 130.357,168.800 130.800 M175.000 131.200 C 175.136 131.420,175.732 131.587,176.324 131.572 C 177.285 131.547,177.314 131.507,176.600 131.200 C 175.489 130.722,174.705 130.722,175.000 131.200 M393.267 137.580 C 393.033 138.251,392.927 138.800,393.031 138.800 C 393.301 138.800,394.056 136.722,393.857 136.524 C 393.767 136.433,393.501 136.908,393.267 137.580 M336.975 139.300 L 335.800 140.600 337.100 139.425 C 337.815 138.779,338.400 138.194,338.400 138.125 C 338.400 137.816,338.070 138.088,336.975 139.300 M392.100 140.500 C 391.670 141.675,391.680 141.726,392.212 141.024 C 392.721 140.352,393.021 139.200,392.688 139.200 C 392.626 139.200,392.361 139.785,392.100 140.500 M390.081 145.009 C 389.602 145.994,389.294 146.800,389.397 146.800 C 389.668 146.800,391.284 143.551,391.103 143.370 C 391.019 143.286,390.559 144.024,390.081 145.009 M326.794 149.900 L 321.800 155.000 326.900 150.006 C 331.637 145.367,332.181 144.800,331.894 144.800 C 331.836 144.800,329.541 147.095,326.794 149.900 M111.786 147.749 C 110.684 148.491,109.516 149.422,109.191 149.818 C 108.866 150.214,109.415 149.922,110.410 149.169 C 111.406 148.416,112.666 147.494,113.210 147.121 C 113.755 146.748,114.108 146.433,113.995 146.421 C 113.882 146.409,112.888 147.007,111.786 147.749 M388.278 148.605 C 387.912 149.372,387.695 150.000,387.796 150.000 C 388.070 150.000,389.284 147.551,389.101 147.368 C 389.014 147.281,388.644 147.838,388.278 148.605 M223.600 148.364 C 224.150 148.814,224.780 149.183,225.000 149.185 C 225.428 149.188,224.705 148.634,223.400 147.960 C 222.869 147.685,222.936 147.821,223.600 148.364 M106.778 151.900 L 105.400 153.400 106.900 152.022 C 108.296 150.738,108.584 150.400,108.278 150.400 C 108.212 150.400,107.537 151.075,106.778 151.900 M235.800 158.400 C 236.883 159.500,237.860 160.400,237.970 160.400 C 238.080 160.400,237.283 159.500,236.200 158.400 C 235.117 157.300,234.140 156.400,234.030 156.400 C 233.920 156.400,234.717 157.300,235.800 158.400 M93.791 164.100 L 90.600 167.400 93.900 164.209 C 95.715 162.455,97.200 160.970,97.200 160.909 C 97.200 160.618,96.754 161.035,93.791 164.100 M307.391 169.700 L 304.200 173.000 307.500 169.809 C 309.315 168.055,310.800 166.570,310.800 166.509 C 310.800 166.218,310.354 166.635,307.391 169.700 M372.786 169.500 L 370.600 171.800 372.900 169.614 C 375.037 167.582,375.383 167.200,375.086 167.200 C 375.024 167.200,373.989 168.235,372.786 169.500 M84.992 172.500 L 81.400 176.200 85.100 172.608 C 88.536 169.272,88.982 168.800,88.692 168.800 C 88.632 168.800,86.967 170.465,84.992 172.500 M366.989 175.700 L 364.200 178.600 367.100 175.811 C 368.695 174.277,370.000 172.972,370.000 172.911 C 370.000 172.617,369.580 173.006,366.989 175.700 M353.800 189.200 C 351.167 191.840,349.103 194.000,349.213 194.000 C 349.323 194.000,351.567 191.840,354.200 189.200 C 356.833 186.560,358.897 184.400,358.787 184.400 C 358.677 184.400,356.433 186.560,353.800 189.200 M57.798 199.300 L 44.200 213.000 57.900 199.402 C 65.435 191.923,71.600 185.758,71.600 185.702 C 71.600 185.420,70.435 186.567,57.798 199.300 M284.395 192.300 L 277.800 199.000 284.500 192.405 C 288.185 188.777,291.200 185.762,291.200 185.705 C 291.200 185.419,290.523 186.075,284.395 192.300 M132.581 191.700 L 131.000 193.400 132.700 191.819 C 134.281 190.348,134.584 190.000,134.281 190.000 C 134.216 190.000,133.451 190.765,132.581 191.700 M127.588 196.300 L 125.000 199.000 127.700 196.412 C 129.185 194.988,130.400 193.773,130.400 193.712 C 130.400 193.417,129.993 193.792,127.588 196.300 M327.198 216.297 C 319.829 223.720,315.429 228.215,317.421 226.284 C 319.412 224.354,321.167 222.870,321.321 222.987 C 321.474 223.104,321.503 223.073,321.385 222.918 C 321.266 222.763,325.630 218.173,331.082 212.718 C 336.534 207.263,340.904 202.800,340.795 202.800 C 340.685 202.800,334.567 208.874,327.198 216.297 M269.387 206.900 L 267.000 209.400 269.500 207.013 C 270.875 205.699,272.000 204.574,272.000 204.513 C 272.000 204.217,271.605 204.578,269.387 206.900 M110.795 212.700 L 104.600 219.000 110.900 212.805 C 116.753 207.049,117.381 206.400,117.095 206.400 C 117.037 206.400,114.202 209.235,110.795 212.700 M162.778 207.900 L 161.400 209.400 162.900 208.022 C 164.296 206.738,164.584 206.400,164.278 206.400 C 164.212 206.400,163.537 207.075,162.778 207.900 M264.975 210.900 L 263.800 212.200 265.100 211.025 C 265.815 210.379,266.400 209.794,266.400 209.725 C 266.400 209.416,266.070 209.688,264.975 210.900 M31.991 225.500 L 28.600 229.000 32.100 225.609 C 35.351 222.459,35.782 222.000,35.491 222.000 C 35.431 222.000,33.856 223.575,31.991 225.500 M232.300 222.689 C 233.015 222.778,234.185 222.778,234.900 222.689 C 235.615 222.601,235.030 222.528,233.600 222.528 C 232.170 222.528,231.585 222.601,232.300 222.689 M92.395 231.100 L 85.800 237.800 92.500 231.205 C 98.725 225.077,99.381 224.400,99.095 224.400 C 99.038 224.400,96.023 227.415,92.395 231.100 M25.986 231.900 L 23.800 234.200 26.100 232.014 C 27.365 230.811,28.400 229.776,28.400 229.714 C 28.400 229.417,28.018 229.763,25.986 231.900 M305.791 237.300 L 302.600 240.600 305.900 237.409 C 308.965 234.446,309.382 234.000,309.091 234.000 C 309.030 234.000,307.545 235.485,305.791 237.300 M291.400 250.235 L 290.200 251.266 291.500 250.406 C 292.215 249.933,292.800 249.468,292.800 249.373 C 292.800 249.073,292.631 249.178,291.400 250.235 M69.592 254.300 L 65.800 258.200 69.700 254.408 C 71.845 252.322,73.600 250.567,73.600 250.508 C 73.600 250.218,73.114 250.678,69.592 254.300 M177.011 252.539 C 178.919 253.841,180.000 254.478,180.000 254.299 C 180.000 254.045,176.904 252.000,176.520 252.000 C 176.356 252.000,176.577 252.242,177.011 252.539 M7.988 258.822 C 7.746 259.274,7.607 259.822,7.680 260.039 C 7.752 260.257,8.018 259.887,8.271 259.217 C 8.797 257.825,8.639 257.605,7.988 258.822 M6.779 261.855 C 6.558 262.436,6.452 262.985,6.543 263.076 C 6.633 263.167,6.899 262.692,7.133 262.020 C 7.653 260.528,7.339 260.382,6.779 261.855 M5.644 264.844 C 5.398 265.551,5.266 266.200,5.352 266.285 C 5.438 266.371,5.709 265.862,5.956 265.156 C 6.202 264.449,6.334 263.800,6.248 263.715 C 6.162 263.629,5.891 264.138,5.644 264.844 M219.800 268.800 C 220.901 269.273,221.292 269.273,221.000 268.800 C 220.864 268.580,220.358 268.413,219.876 268.428 C 219.031 268.455,219.029 268.469,219.800 268.800 M244.000 268.800 C 243.205 269.314,244.204 269.314,245.400 268.800 L 246.200 268.456 245.400 268.434 C 244.960 268.422,244.330 268.587,244.000 268.800 M223.200 269.200 C 224.742 269.694,225.564 269.694,224.800 269.200 C 224.470 268.987,223.750 268.827,223.200 268.846 L 222.200 268.880 223.200 269.200 M240.800 269.218 C 240.362 269.515,240.524 269.552,241.400 269.356 C 242.871 269.027,243.190 268.798,242.167 268.806 C 241.745 268.809,241.130 268.995,240.800 269.218 M230.200 269.571 C 231.740 269.711,234.170 269.712,235.600 269.573 C 237.514 269.388,236.775 269.321,232.800 269.320 C 228.611 269.318,228.028 269.374,230.200 269.571 M186.596 290.500 L 178.600 298.600 186.700 290.604 C 191.155 286.206,194.800 282.561,194.800 282.504 C 194.800 282.219,194.026 282.974,186.596 290.500 M218.800 287.605 C 219.130 287.816,219.925 287.991,220.567 287.994 C 222.114 288.002,221.777 287.771,219.800 287.468 C 218.710 287.301,218.391 287.345,218.800 287.605 M245.200 287.600 C 243.833 287.888,243.828 287.895,245.000 287.919 C 245.660 287.933,246.560 287.789,247.000 287.600 C 247.962 287.187,247.164 287.187,245.200 287.600 M248.700 287.482 C 249.195 287.578,250.005 287.578,250.500 287.482 C 250.995 287.387,250.590 287.309,249.600 287.309 C 248.610 287.309,248.205 287.387,248.700 287.482 M222.600 288.010 C 223.370 288.331,227.107 288.551,226.767 288.255 C 226.675 288.176,225.520 288.013,224.200 287.893 C 222.751 287.762,222.117 287.808,222.600 288.010 M241.200 288.000 C 239.833 288.288,239.828 288.295,241.000 288.319 C 241.660 288.333,242.560 288.189,243.000 288.000 C 243.962 287.587,243.164 287.587,241.200 288.000 M229.600 288.463 C 231.797 288.802,236.179 288.796,237.770 288.453 C 238.413 288.314,236.433 288.197,233.370 288.193 C 229.859 288.188,228.465 288.288,229.600 288.463 M249.375 292.100 L 248.200 293.400 249.500 292.225 C 250.215 291.579,250.800 290.994,250.800 290.925 C 250.800 290.616,250.470 290.888,249.375 292.100 M47.067 293.067 C 46.920 293.213,46.811 293.708,46.825 294.167 C 46.849 294.933,46.882 294.923,47.234 294.042 C 47.626 293.063,47.544 292.589,47.067 293.067 M169.595 307.500 L 163.000 314.200 169.700 307.605 C 173.385 303.977,176.400 300.962,176.400 300.905 C 176.400 300.619,175.723 301.275,169.595 307.500 M46.806 303.076 C 46.803 303.558,46.980 304.064,47.200 304.200 C 47.709 304.515,47.709 303.588,47.200 302.800 C 46.885 302.312,46.811 302.364,46.806 303.076 M237.200 305.400 C 236.228 306.390,235.523 307.200,235.633 307.200 C 235.743 307.200,236.628 306.390,237.600 305.400 C 238.572 304.410,239.277 303.600,239.167 303.600 C 239.057 303.600,238.172 304.410,237.200 305.400 M229.991 313.100 L 226.600 316.600 230.100 313.209 C 233.351 310.059,233.782 309.600,233.491 309.600 C 233.431 309.600,231.856 311.175,229.991 313.100 M50.324 317.000 C 50.526 317.440,50.792 318.070,50.914 318.400 C 51.107 318.918,51.141 318.915,51.168 318.376 C 51.186 318.034,50.920 317.404,50.578 316.976 C 49.966 316.212,49.962 316.213,50.324 317.000 M149.992 326.700 L 146.200 330.600 150.100 326.808 C 153.722 323.286,154.182 322.800,153.892 322.800 C 153.833 322.800,152.078 324.555,149.992 326.700 M212.996 330.500 L 206.200 337.400 213.100 330.604 C 219.510 324.291,220.181 323.600,219.896 323.600 C 219.838 323.600,216.733 326.705,212.996 330.500 M6.000 332.123 C 6.000 332.630,8.468 338.609,8.831 338.982 C 9.036 339.191,8.555 337.751,7.762 335.782 C 6.385 332.357,6.000 331.558,6.000 332.123 M141.385 334.900 L 139.400 337.000 141.500 335.015 C 142.655 333.923,143.600 332.978,143.600 332.915 C 143.600 332.617,143.229 332.949,141.385 334.900 M63.988 336.910 C 65.412 338.389,66.658 339.600,66.758 339.600 C 67.017 339.600,65.100 337.466,64.492 337.076 C 64.212 336.897,64.088 336.582,64.215 336.375 C 64.343 336.169,64.223 336.000,63.949 336.000 C 63.676 336.000,62.990 335.599,62.426 335.110 C 61.862 334.620,62.565 335.430,63.988 336.910 M191.795 351.700 L 185.400 358.200 191.900 351.805 C 195.475 348.287,198.400 345.362,198.400 345.305 C 198.400 345.019,197.737 345.661,191.795 351.700 M126.700 347.227 C 125.875 347.663,125.200 348.108,125.200 348.218 C 125.200 348.327,125.920 348.049,126.800 347.600 C 127.680 347.151,128.400 346.697,128.400 346.592 C 128.400 346.330,128.397 346.331,126.700 347.227 M123.300 348.812 C 121.961 349.351,122.211 349.624,123.600 349.140 C 124.260 348.910,124.800 348.649,124.800 348.561 C 124.800 348.324,124.313 348.405,123.300 348.812 M98.526 352.886 C 98.787 353.052,100.620 353.188,102.600 353.188 C 104.580 353.188,106.413 353.052,106.674 352.886 C 106.935 352.720,105.102 352.585,102.600 352.585 C 100.098 352.585,98.265 352.720,98.526 352.886 M176.985 366.100 L 175.000 368.200 177.100 366.215 C 178.255 365.123,179.200 364.178,179.200 364.115 C 179.200 363.817,178.829 364.149,176.985 366.100 M29.600 369.000 C 30.795 370.210,31.863 371.200,31.973 371.200 C 32.083 371.200,31.195 370.210,30.000 369.000 C 28.805 367.790,27.737 366.800,27.627 366.800 C 27.517 366.800,28.405 367.790,29.600 369.000 M170.786 371.900 L 168.600 374.200 170.900 372.014 C 173.037 369.982,173.383 369.600,173.086 369.600 C 173.024 369.600,171.989 370.635,170.786 371.900 M34.400 373.325 C 34.400 373.394,34.985 373.979,35.700 374.625 L 37.000 375.800 35.825 374.500 C 34.730 373.288,34.400 373.016,34.400 373.325 M166.175 376.100 L 165.000 377.400 166.300 376.225 C 167.512 375.130,167.784 374.800,167.475 374.800 C 167.406 374.800,166.821 375.385,166.175 376.100 M146.400 389.400 C 145.410 389.930,144.742 390.372,144.916 390.382 C 145.341 390.406,148.400 388.834,148.400 388.592 C 148.400 388.327,148.417 388.320,146.400 389.400 M60.000 390.619 C 60.000 390.913,62.449 392.050,62.809 391.924 C 63.004 391.856,62.451 391.498,61.582 391.130 C 60.712 390.761,60.000 390.531,60.000 390.619 M141.000 391.814 C 140.340 392.117,140.081 392.372,140.424 392.382 C 140.766 392.392,141.396 392.136,141.824 391.813 C 142.772 391.096,142.569 391.096,141.000 391.814 M66.000 393.400 C 66.550 393.714,67.270 393.971,67.600 393.970 C 67.930 393.969,67.594 393.706,66.854 393.384 C 65.151 392.645,64.694 392.653,66.000 393.400 M98.105 399.887 C 98.714 399.979,99.614 399.977,100.105 399.882 C 100.597 399.787,100.100 399.711,99.000 399.714 C 97.900 399.717,97.497 399.795,98.105 399.887 M105.305 399.887 C 105.914 399.979,106.814 399.977,107.305 399.882 C 107.797 399.787,107.300 399.711,106.200 399.714 C 105.100 399.717,104.697 399.795,105.305 399.887 " stroke="none" fill="#565656" fill-rule="evenodd"></path><path id="path3" d="M200.614 56.386 C 199.989 57.038,199.351 57.494,199.197 57.398 C 199.043 57.303,198.499 57.669,197.988 58.212 C 197.478 58.756,197.217 59.200,197.409 59.200 C 197.600 59.200,197.139 59.875,196.385 60.700 C 195.630 61.525,196.585 60.674,198.506 58.809 C 200.428 56.944,202.000 55.369,202.000 55.309 C 202.000 55.029,201.663 55.290,200.614 56.386 M390.081 58.591 C 390.559 59.576,391.019 60.314,391.103 60.230 C 391.284 60.049,389.668 56.800,389.397 56.800 C 389.294 56.800,389.602 57.606,390.081 58.591 M252.585 71.300 L 250.600 73.400 252.700 71.415 C 254.651 69.571,254.983 69.200,254.685 69.200 C 254.622 69.200,253.677 70.145,252.585 71.300 M185.178 71.900 L 183.800 73.400 185.300 72.022 C 186.125 71.263,186.800 70.588,186.800 70.522 C 186.800 70.216,186.462 70.504,185.178 71.900 M219.781 104.074 C 218.217 105.730,218.215 105.736,219.600 104.624 C 220.836 103.632,221.889 102.400,221.501 102.400 C 221.425 102.400,220.651 103.153,219.781 104.074 M335.026 141.100 C 334.162 142.205,334.093 142.390,334.763 141.804 C 335.565 141.104,336.623 139.600,336.314 139.600 C 336.251 139.600,335.672 140.275,335.026 141.100 M292.175 184.500 L 291.000 185.800 292.300 184.625 C 293.015 183.979,293.600 183.394,293.600 183.325 C 293.600 183.016,293.270 183.288,292.175 184.500 M65.775 190.900 L 64.600 192.200 65.900 191.025 C 66.615 190.379,67.200 189.794,67.200 189.725 C 67.200 189.416,66.870 189.688,65.775 190.900 M340.740 202.898 C 339.091 204.778,338.691 205.389,339.600 204.640 C 340.370 204.005,341.415 202.877,341.921 202.133 C 342.428 201.388,343.001 200.877,343.194 200.996 C 343.387 201.115,343.650 201.043,343.779 200.834 C 344.786 199.204,342.793 200.558,340.740 202.898 M320.175 223.655 C 319.005 224.905,319.005 224.907,320.066 224.231 C 320.653 223.858,321.232 223.293,321.354 222.976 C 321.673 222.144,321.491 222.249,320.175 223.655 M310.975 232.500 L 309.800 233.800 311.100 232.625 C 311.815 231.979,312.400 231.394,312.400 231.325 C 312.400 231.016,312.070 231.288,310.975 232.500 M164.000 241.957 C 164.000 242.150,164.450 242.603,165.000 242.963 C 165.550 243.324,166.000 243.557,166.000 243.481 C 166.000 243.406,165.550 242.953,165.000 242.475 C 164.450 241.997,164.000 241.763,164.000 241.957 M74.778 249.100 L 73.400 250.600 74.900 249.222 C 76.296 247.938,76.584 247.600,76.278 247.600 C 76.212 247.600,75.537 248.275,74.778 249.100 M62.006 262.389 C 61.512 263.311,62.062 263.489,62.770 262.636 C 63.073 262.272,63.097 261.984,62.839 261.824 C 62.620 261.689,62.245 261.943,62.006 262.389 M230.500 269.876 C 230.885 269.976,231.515 269.976,231.900 269.876 C 232.285 269.775,231.970 269.693,231.200 269.693 C 230.430 269.693,230.115 269.775,230.500 269.876 M220.951 322.500 C 219.178 324.523,218.892 325.036,219.939 324.316 C 220.456 323.960,221.121 323.204,221.416 322.635 C 222.075 321.365,221.972 321.335,220.951 322.500 M102.705 352.683 C 103.202 352.779,103.922 352.775,104.305 352.675 C 104.687 352.575,104.280 352.496,103.400 352.501 C 102.520 352.505,102.207 352.587,102.705 352.683 " stroke="none" fill="#7c7c7c" fill-rule="evenodd"></path><path id="path4" d="M340.000 8.997 C 340.000 9.268,343.249 10.884,343.430 10.703 C 343.514 10.619,342.776 10.159,341.791 9.681 C 340.806 9.202,340.000 8.894,340.000 8.997 M230.175 27.300 L 229.000 28.600 230.300 27.425 C 231.015 26.779,231.600 26.194,231.600 26.125 C 231.600 25.816,231.270 26.088,230.175 27.300 M369.800 30.400 C 371.328 31.940,372.669 33.200,372.779 33.200 C 372.889 33.200,371.728 31.940,370.200 30.400 C 368.672 28.860,367.331 27.600,367.221 27.600 C 367.111 27.600,368.272 28.860,369.800 30.400 M213.600 43.400 C 212.628 44.390,211.923 45.200,212.033 45.200 C 212.143 45.200,213.028 44.390,214.000 43.400 C 214.972 42.410,215.677 41.600,215.567 41.600 C 215.457 41.600,214.572 42.410,213.600 43.400 M197.398 59.300 L 185.000 71.800 197.500 59.402 C 204.375 52.584,210.000 46.959,210.000 46.902 C 210.000 46.620,208.919 47.683,197.398 59.300 M262.785 61.606 L 261.400 62.812 262.900 61.966 C 263.725 61.501,264.400 60.959,264.400 60.760 C 264.400 60.233,264.304 60.283,262.785 61.606 M333.558 61.522 C 333.817 62.005,334.240 62.400,334.499 62.400 C 334.758 62.400,335.785 63.165,336.781 64.100 C 337.980 65.225,338.188 65.348,337.396 64.463 C 335.536 62.384,332.965 60.414,333.558 61.522 M182.181 74.900 L 180.600 76.600 182.300 75.019 C 183.881 73.548,184.184 73.200,183.881 73.200 C 183.816 73.200,183.051 73.965,182.181 74.900 M248.386 75.500 L 246.200 77.800 248.500 75.614 C 249.765 74.411,250.800 73.376,250.800 73.314 C 250.800 73.017,250.418 73.363,248.386 75.500 M166.575 90.500 L 165.400 91.800 166.700 90.625 C 167.912 89.530,168.184 89.200,167.875 89.200 C 167.806 89.200,167.221 89.785,166.575 90.500 M163.375 94.100 L 162.200 95.400 163.500 94.225 C 164.712 93.130,164.984 92.800,164.675 92.800 C 164.606 92.800,164.021 93.385,163.375 94.100 M155.774 101.900 C 154.855 103.128,154.817 103.256,155.563 102.604 C 156.431 101.846,157.414 100.400,157.062 100.400 C 156.970 100.400,156.390 101.075,155.774 101.900 M211.394 112.500 L 206.200 117.800 211.500 112.606 C 214.415 109.749,216.800 107.364,216.800 107.306 C 216.800 107.019,216.219 107.577,211.394 112.500 M330.591 145.700 L 327.400 149.000 330.700 145.809 C 333.765 142.846,334.182 142.400,333.891 142.400 C 333.830 142.400,332.345 143.885,330.591 145.700 M320.555 155.697 C 319.480 156.850,318.465 157.795,318.300 157.797 C 318.135 157.799,317.998 157.980,317.997 158.200 C 317.995 158.420,314.260 162.380,309.697 167.000 L 301.400 175.400 310.127 166.800 C 318.031 159.010,323.182 153.600,322.694 153.600 C 322.593 153.600,321.630 154.544,320.555 155.697 M232.400 154.868 C 233.402 155.845,233.910 156.025,233.418 155.229 C 233.273 154.995,232.760 154.599,232.278 154.349 C 231.483 153.936,231.494 153.985,232.400 154.868 M97.722 159.824 C 96.905 160.570,96.826 160.739,97.433 160.446 C 98.263 160.045,99.502 158.800,99.071 158.800 C 98.947 158.800,98.340 159.261,97.722 159.824 M91.578 165.900 L 90.200 167.400 91.700 166.022 C 93.096 164.738,93.384 164.400,93.078 164.400 C 93.012 164.400,92.337 165.075,91.578 165.900 M87.375 169.700 L 86.200 171.000 87.500 169.825 C 88.215 169.179,88.800 168.594,88.800 168.525 C 88.800 168.216,88.470 168.488,87.375 169.700 M295.385 181.300 L 293.400 183.400 295.500 181.415 C 297.451 179.571,297.783 179.200,297.485 179.200 C 297.422 179.200,296.477 180.145,295.385 181.300 M74.778 182.300 L 73.400 183.800 74.900 182.422 C 76.296 181.138,76.584 180.800,76.278 180.800 C 76.212 180.800,75.537 181.475,74.778 182.300 M360.759 182.304 C 358.838 184.448,358.301 185.373,359.945 183.707 C 360.864 182.776,361.702 182.011,361.808 182.007 C 362.054 181.998,362.116 181.583,361.904 181.371 C 361.815 181.281,361.300 181.701,360.759 182.304 M289.391 186.900 L 286.200 190.200 289.500 187.009 C 292.565 184.046,292.982 183.600,292.691 183.600 C 292.630 183.600,291.145 185.085,289.391 186.900 M242.400 185.600 C 241.951 186.480,241.767 187.200,241.992 187.200 C 242.216 187.200,242.400 187.132,242.400 187.049 C 242.400 186.966,242.672 186.246,243.005 185.449 C 243.818 183.504,243.418 183.604,242.400 185.600 M69.588 187.100 L 67.000 189.800 69.700 187.212 C 71.185 185.788,72.400 184.573,72.400 184.512 C 72.400 184.217,71.993 184.592,69.588 187.100 M348.703 194.745 C 345.284 198.235,342.275 201.520,342.016 202.045 C 341.757 202.570,342.404 202.010,343.453 200.800 C 344.503 199.590,347.611 196.305,350.361 193.500 C 353.111 190.695,355.261 188.400,355.140 188.400 C 355.019 188.400,352.122 191.255,348.703 194.745 M116.447 207.500 C 111.235 212.725,110.174 213.850,114.089 210.000 C 118.005 206.150,121.341 203.045,121.504 203.100 C 121.667 203.155,121.803 203.065,121.806 202.900 C 121.818 202.299,122.464 201.593,122.808 201.805 C 123.001 201.924,123.364 201.642,123.613 201.176 C 123.862 200.711,124.636 199.811,125.333 199.177 C 126.030 198.542,126.448 198.018,126.262 198.012 C 126.076 198.005,121.659 202.275,116.447 207.500 M44.383 212.300 C 40.404 216.476,39.035 218.000,39.263 218.000 C 39.388 218.000,41.150 216.200,43.180 214.000 C 45.210 211.800,46.805 210.000,46.723 210.000 C 46.642 210.000,45.589 211.035,44.383 212.300 M207.801 216.002 C 208.069 216.436,210.400 217.734,210.400 217.450 C 210.400 217.356,209.759 216.901,208.976 216.439 C 208.193 215.977,207.664 215.780,207.801 216.002 M254.600 217.386 C 253.940 217.688,253.681 217.950,254.024 217.968 C 254.366 217.985,254.996 217.736,255.424 217.413 C 256.388 216.683,256.151 216.676,254.600 217.386 M316.587 227.300 L 314.200 229.800 316.700 227.413 C 318.075 226.099,319.200 224.974,319.200 224.913 C 319.200 224.617,318.805 224.978,316.587 227.300 M91.000 232.800 C 88.367 235.440,86.303 237.600,86.413 237.600 C 86.523 237.600,88.767 235.440,91.400 232.800 C 94.033 230.160,96.097 228.000,95.987 228.000 C 95.877 228.000,93.633 230.160,91.000 232.800 M308.378 235.100 L 307.000 236.600 308.500 235.222 C 309.896 233.938,310.184 233.600,309.878 233.600 C 309.812 233.600,309.137 234.275,308.378 235.100 M162.800 240.702 C 162.800 240.922,163.070 241.326,163.400 241.600 C 163.735 241.878,164.000 241.921,164.000 241.698 C 164.000 241.478,163.730 241.074,163.400 240.800 C 163.065 240.522,162.800 240.479,162.800 240.702 M301.506 241.652 C 300.788 242.341,300.487 242.702,300.837 242.456 C 301.187 242.209,301.568 242.101,301.683 242.216 C 301.798 242.331,302.190 241.969,302.555 241.412 C 303.444 240.055,303.087 240.137,301.506 241.652 M164.800 242.939 C 164.800 243.046,165.565 243.729,166.500 244.459 C 167.435 245.188,167.946 245.465,167.636 245.074 C 167.019 244.297,164.800 242.627,164.800 242.939 M78.000 245.800 C 77.028 246.790,76.323 247.600,76.433 247.600 C 76.543 247.600,77.428 246.790,78.400 245.800 C 79.372 244.810,80.077 244.000,79.967 244.000 C 79.857 244.000,78.972 244.810,78.000 245.800 M71.978 252.300 L 70.600 253.800 72.100 252.422 C 73.496 251.138,73.784 250.800,73.478 250.800 C 73.412 250.800,72.737 251.475,71.978 252.300 M63.641 260.614 C 62.135 262.329,62.075 262.632,63.412 261.755 C 63.969 261.390,64.329 260.996,64.212 260.878 C 64.094 260.761,64.297 260.335,64.661 259.932 C 65.026 259.530,65.225 259.200,65.103 259.200 C 64.982 259.200,64.324 259.836,63.641 260.614 M188.175 288.500 L 187.000 289.800 188.300 288.625 C 189.512 287.530,189.784 287.200,189.475 287.200 C 189.406 287.200,188.821 287.785,188.175 288.500 M233.300 288.276 C 233.685 288.376,234.315 288.376,234.700 288.276 C 235.085 288.175,234.770 288.093,234.000 288.093 C 233.230 288.093,232.915 288.175,233.300 288.276 M46.937 298.600 C 46.939 300.360,47.009 301.030,47.093 300.089 C 47.178 299.149,47.177 297.709,47.091 296.889 C 47.005 296.070,46.936 296.840,46.937 298.600 M245.544 296.700 C 244.393 298.089,243.906 298.800,244.104 298.800 C 244.214 298.800,244.786 298.170,245.373 297.400 C 246.463 295.971,246.595 295.432,245.544 296.700 M240.323 302.300 C 239.560 303.189,239.095 304.000,239.349 304.000 C 239.457 304.000,239.930 303.460,240.400 302.800 C 241.332 301.491,241.284 301.181,240.323 302.300 M166.595 310.100 L 160.200 316.600 166.700 310.205 C 170.275 306.687,173.200 303.762,173.200 303.705 C 173.200 303.419,172.537 304.061,166.595 310.100 M225.060 318.378 C 222.937 320.566,221.205 322.591,221.212 322.878 C 221.219 323.165,221.714 322.802,222.312 322.071 C 222.910 321.341,224.736 319.316,226.369 317.571 C 230.588 313.065,229.661 313.637,225.060 318.378 M159.260 317.300 C 158.985 317.575,158.544 317.800,158.280 317.800 C 158.016 317.800,157.794 317.980,157.787 318.200 C 157.779 318.420,156.519 319.842,154.987 321.359 C 152.356 323.964,152.407 323.933,155.907 320.809 C 159.322 317.762,160.280 316.800,159.904 316.800 C 159.825 316.800,159.535 317.025,159.260 317.300 M147.200 329.000 C 146.228 329.990,145.523 330.800,145.633 330.800 C 145.743 330.800,146.628 329.990,147.600 329.000 C 148.572 328.010,149.277 327.200,149.167 327.200 C 149.057 327.200,148.172 328.010,147.200 329.000 M209.992 333.900 L 206.200 337.800 210.100 334.008 C 213.722 330.486,214.182 330.000,213.892 330.000 C 213.833 330.000,212.078 331.755,209.992 333.900 M136.348 338.897 C 135.984 339.577,136.028 339.613,136.747 339.228 C 137.818 338.655,138.111 338.133,137.361 338.133 C 137.029 338.133,136.573 338.477,136.348 338.897 M194.400 349.400 C 193.428 350.390,192.723 351.200,192.833 351.200 C 192.943 351.200,193.828 350.390,194.800 349.400 C 195.772 348.410,196.477 347.600,196.367 347.600 C 196.257 347.600,195.372 348.410,194.400 349.400 M184.400 359.187 C 183.190 360.275,182.357 361.173,182.549 361.183 C 182.741 361.192,182.651 361.515,182.349 361.900 C 181.854 362.532,181.867 362.547,182.487 362.062 C 182.865 361.766,183.135 361.359,183.087 361.157 C 183.039 360.956,183.900 359.990,185.000 359.011 C 186.100 358.032,186.910 357.226,186.800 357.220 C 186.690 357.214,185.610 358.099,184.400 359.187 M172.175 370.900 L 171.000 372.200 172.300 371.025 C 173.512 369.930,173.784 369.600,173.475 369.600 C 173.406 369.600,172.821 370.185,172.175 370.900 M56.400 388.997 C 56.400 389.268,59.649 390.884,59.830 390.703 C 59.914 390.619,59.176 390.159,58.191 389.681 C 57.206 389.202,56.400 388.894,56.400 388.997 " stroke="none" fill="#848484" fill-rule="evenodd"></path></g></svg>