<svg id="svg" version="1.1" xmlns="http://www.w3.org/2000/svg" xmlns:xlink="http://www.w3.org/1999/xlink" width="400" height="418.6046511627907" viewBox="0, 0, 400,418.6046511627907"><g id="svgg"><path id="path0" d="M283.800 19.048 C 267.209 20.391,249.203 27.249,236.565 37.036 C 226.552 44.791,155.434 116.271,152.113 121.918 C 150.789 124.170,150.815 124.180,155.864 123.334 C 168.243 121.259,187.310 122.907,203.359 127.439 L 205.318 127.992 230.759 102.696 C 259.716 73.904,263.910 70.093,269.800 67.220 C 292.396 56.199,317.405 63.223,333.810 85.200 C 346.448 102.131,345.440 128.376,331.554 143.977 C 320.988 155.849,265.520 210.901,258.338 216.644 C 245.652 226.790,225.324 228.494,208.993 220.781 C 206.071 219.401,203.998 217.962,195.126 211.156 C 184.859 203.280,174.217 203.497,165.914 211.751 C 157.337 220.277,156.939 231.888,164.910 241.025 C 177.352 255.287,196.409 264.809,219.800 268.452 C 242.946 272.056,273.020 262.619,291.183 246.051 C 304.615 233.799,353.962 183.905,365.846 170.560 C 384.748 149.335,391.355 111.940,381.209 83.600 C 366.532 42.605,325.846 15.642,283.800 19.048 M158.400 140.668 C 143.639 143.014,126.865 149.647,117.000 157.039 C 109.188 162.892,51.230 219.902,36.236 236.481 C 19.568 254.912,11.342 282.665,15.037 308.000 C 19.296 337.198,35.162 360.746,61.723 377.290 C 90.920 395.475,131.395 394.415,160.600 374.699 C 172.497 366.668,251.357 287.347,248.910 285.873 C 248.740 285.770,245.990 285.929,242.800 286.227 C 228.205 287.586,215.053 286.546,201.600 282.967 C 198.630 282.177,196.000 281.501,195.755 281.465 C 195.510 281.429,185.700 290.861,173.955 302.425 C 143.847 332.067,136.085 339.345,132.212 341.566 C 119.628 348.782,97.960 348.603,85.200 341.176 C 59.669 326.316,49.846 293.812,64.135 271.475 C 68.915 264.002,133.683 198.855,143.605 191.540 C 156.289 182.188,177.704 181.188,192.754 189.244 C 195.739 190.842,196.954 191.707,204.200 197.389 C 215.071 205.914,225.162 206.207,233.866 198.249 C 244.149 188.847,243.687 176.301,232.654 165.385 C 218.533 151.415,202.266 144.014,178.671 140.823 C 175.755 140.429,160.633 140.313,158.400 140.668 " stroke="none" fill="#040404" fill-rule="evenodd"></path><path id="path1" d="M0.000 209.200 L 0.000 418.400 200.000 418.400 L 400.000 418.400 400.000 209.200 L 400.000 0.000 200.000 0.000 L 0.000 0.000 0.000 209.200 M300.200 18.808 C 338.085 22.478,370.952 49.671,382.849 87.189 C 387.156 100.771,387.197 125.382,382.936 139.000 C 379.491 150.009,373.070 162.896,368.152 168.670 C 358.191 180.366,301.221 237.904,289.374 248.234 C 260.341 273.548,213.715 276.312,180.353 254.697 C 160.086 241.566,153.822 227.813,162.391 215.260 C 171.138 202.446,184.606 201.510,198.000 212.785 C 215.717 227.699,241.948 229.430,257.635 216.720 C 270.182 206.555,332.425 143.592,336.208 137.239 C 344.404 123.475,343.889 101.142,335.070 87.887 C 321.033 66.791,298.499 57.884,276.800 64.855 C 266.136 68.281,266.728 67.785,230.055 103.977 C 207.136 126.594,205.427 128.191,204.274 128.064 C 203.594 127.989,201.589 127.508,199.819 126.996 C 186.488 123.141,167.709 121.862,155.081 123.948 C 150.024 124.784,149.910 124.707,151.750 121.696 C 155.577 115.435,227.264 43.410,236.748 36.298 C 254.345 23.102,277.796 16.638,300.200 18.808 M179.220 140.615 C 198.807 142.579,214.660 149.211,229.124 161.491 C 244.414 174.472,245.947 188.507,233.255 199.322 C 223.969 207.236,214.428 206.231,201.679 195.995 C 182.000 180.196,157.706 179.930,139.657 195.316 C 130.852 202.822,74.883 258.969,67.687 267.515 C 55.300 282.225,54.669 305.183,66.178 322.375 C 78.476 340.744,97.038 349.159,117.956 345.846 C 131.575 343.689,132.493 342.958,176.328 299.408 C 192.492 283.350,194.994 281.015,195.928 281.118 C 196.518 281.183,198.894 281.767,201.210 282.416 C 214.107 286.029,228.793 287.208,242.507 285.733 C 251.390 284.778,251.356 284.636,244.233 292.733 C 224.478 315.190,168.974 369.883,160.242 375.496 C 128.686 395.782,90.594 395.984,58.998 376.034 C 52.971 372.228,40.915 362.236,38.760 359.260 C 38.452 358.835,36.925 356.983,35.367 355.144 C 6.113 320.620,6.750 268.466,36.832 235.200 C 49.664 221.010,112.236 159.530,117.165 156.269 C 136.938 143.189,156.267 138.313,179.220 140.615 " stroke="none" fill="#f3f3f3" fill-rule="evenodd"></path><path id="path2" d="M285.100 18.689 C 285.815 18.778,286.985 18.778,287.700 18.689 C 288.415 18.601,287.830 18.528,286.400 18.528 C 284.970 18.528,284.385 18.601,285.100 18.689 M293.900 18.689 C 294.615 18.778,295.785 18.778,296.500 18.689 C 297.215 18.601,296.630 18.528,295.200 18.528 C 293.770 18.528,293.185 18.601,293.900 18.689 M280.100 19.076 C 280.485 19.176,281.115 19.176,281.500 19.076 C 281.885 18.975,281.570 18.893,280.800 18.893 C 280.030 18.893,279.715 18.975,280.100 19.076 M300.305 19.083 C 300.802 19.179,301.522 19.175,301.905 19.075 C 302.287 18.975,301.880 18.896,301.000 18.901 C 300.120 18.905,299.807 18.987,300.305 19.083 M330.033 26.949 C 330.445 27.317,332.800 28.400,332.800 28.221 C 332.800 27.990,330.582 26.800,330.153 26.800 C 329.996 26.800,329.942 26.867,330.033 26.949 M231.781 40.500 L 230.200 42.200 231.900 40.619 C 233.481 39.148,233.784 38.800,233.481 38.800 C 233.416 38.800,232.651 39.565,231.781 40.500 M355.000 44.000 C 356.306 45.320,357.465 46.400,357.575 46.400 C 357.685 46.400,356.706 45.320,355.400 44.000 C 354.094 42.680,352.935 41.600,352.825 41.600 C 352.715 41.600,353.694 42.680,355.000 44.000 M224.991 46.900 L 221.800 50.200 225.100 47.009 C 228.165 44.046,228.582 43.600,228.291 43.600 C 228.230 43.600,226.745 45.085,224.991 46.900 M360.600 49.600 C 361.459 50.480,362.252 51.200,362.362 51.200 C 362.472 51.200,361.859 50.480,361.000 49.600 C 360.141 48.720,359.348 48.000,359.238 48.000 C 359.128 48.000,359.741 48.720,360.600 49.600 M198.398 73.100 L 183.000 88.600 198.500 73.202 C 212.906 58.891,214.180 57.600,213.898 57.600 C 213.842 57.600,206.867 64.575,198.398 73.100 M270.000 67.200 C 269.230 67.622,268.780 67.966,269.000 67.966 C 269.220 67.966,270.030 67.622,270.800 67.200 C 271.570 66.778,272.020 66.434,271.800 66.434 C 271.580 66.434,270.770 66.778,270.000 67.200 M256.985 77.300 L 255.000 79.400 257.100 77.415 C 259.051 75.571,259.383 75.200,259.085 75.200 C 259.022 75.200,258.077 76.145,256.985 77.300 M330.000 81.400 C 330.746 82.170,331.447 82.800,331.557 82.800 C 331.667 82.800,331.146 82.170,330.400 81.400 C 329.654 80.630,328.953 80.000,328.843 80.000 C 328.733 80.000,329.254 80.630,330.000 81.400 M241.197 92.700 L 231.400 102.600 241.300 92.803 C 246.745 87.415,251.200 82.960,251.200 82.903 C 251.200 82.620,250.301 83.501,241.197 92.700 M179.988 91.500 L 177.400 94.200 180.100 91.612 C 182.608 89.207,182.983 88.800,182.688 88.800 C 182.627 88.800,181.412 90.015,179.988 91.500 M167.392 104.500 L 163.400 108.600 167.500 104.608 C 171.308 100.899,171.782 100.400,171.492 100.400 C 171.433 100.400,169.588 102.245,167.392 104.500 M341.709 108.400 C 341.709 109.390,341.787 109.795,341.882 109.300 C 341.978 108.805,341.978 107.995,341.882 107.500 C 341.787 107.005,341.709 107.410,341.709 108.400 M158.581 113.700 L 157.000 115.400 158.700 113.819 C 160.281 112.348,160.584 112.000,160.281 112.000 C 160.216 112.000,159.451 112.765,158.581 113.700 M153.978 118.700 L 152.600 120.200 154.100 118.822 C 154.925 118.063,155.600 117.388,155.600 117.322 C 155.600 117.016,155.262 117.304,153.978 118.700 M341.714 119.000 C 341.717 120.100,341.795 120.503,341.887 119.895 C 341.979 119.286,341.977 118.386,341.882 117.895 C 341.787 117.403,341.711 117.900,341.714 119.000 M150.777 123.243 C 150.435 123.883,150.445 124.196,150.822 124.543 C 151.197 124.889,151.250 124.880,151.040 124.508 C 150.888 124.238,150.958 123.653,151.196 123.208 C 151.433 122.764,151.538 122.400,151.428 122.400 C 151.318 122.400,151.025 122.779,150.777 123.243 M161.505 123.083 C 162.002 123.179,162.722 123.175,163.105 123.075 C 163.487 122.975,163.080 122.896,162.200 122.901 C 161.320 122.905,161.007 122.987,161.505 123.083 M175.905 123.083 C 176.402 123.179,177.122 123.175,177.505 123.075 C 177.887 122.975,177.480 122.896,176.600 122.901 C 175.720 122.905,175.407 122.987,175.905 123.083 M180.900 123.476 C 181.285 123.576,181.915 123.576,182.300 123.476 C 182.685 123.375,182.370 123.293,181.600 123.293 C 180.830 123.293,180.515 123.375,180.900 123.476 M206.094 127.212 C 205.375 127.865,204.937 128.400,205.119 128.400 C 205.301 128.400,205.968 127.860,206.600 127.200 C 208.070 125.665,207.786 125.672,206.094 127.212 M328.987 146.100 L 326.600 148.600 329.100 146.213 C 330.475 144.899,331.600 143.774,331.600 143.713 C 331.600 143.417,331.205 143.778,328.987 146.100 M319.793 155.700 L 315.400 160.200 319.900 155.807 C 324.080 151.726,324.582 151.200,324.293 151.200 C 324.234 151.200,322.209 153.225,319.793 155.700 M111.978 160.700 L 110.600 162.200 112.100 160.822 C 113.496 159.538,113.784 159.200,113.478 159.200 C 113.412 159.200,112.737 159.875,111.978 160.700 M106.400 165.800 C 105.428 166.790,104.723 167.600,104.833 167.600 C 104.943 167.600,105.828 166.790,106.800 165.800 C 107.772 164.810,108.477 164.000,108.367 164.000 C 108.257 164.000,107.372 164.810,106.400 165.800 M307.775 168.100 L 306.600 169.400 307.900 168.225 C 308.615 167.579,309.200 166.994,309.200 166.925 C 309.200 166.616,308.870 166.888,307.775 168.100 M366.975 169.700 L 365.800 171.000 367.100 169.825 C 367.815 169.179,368.400 168.594,368.400 168.525 C 368.400 168.216,368.070 168.488,366.975 169.700 M298.796 177.100 L 291.800 184.200 298.900 177.204 C 302.805 173.357,306.000 170.162,306.000 170.104 C 306.000 169.819,305.295 170.504,298.796 177.100 M96.800 175.000 C 95.161 176.650,93.910 178.000,94.020 178.000 C 94.130 178.000,95.561 176.650,97.200 175.000 C 98.839 173.350,100.090 172.000,99.980 172.000 C 99.870 172.000,98.439 173.350,96.800 175.000 M363.381 173.700 L 361.800 175.400 363.500 173.819 C 365.081 172.348,365.384 172.000,365.081 172.000 C 365.016 172.000,364.251 172.765,363.381 173.700 M356.786 180.700 L 354.600 183.000 356.900 180.814 C 358.165 179.611,359.200 178.576,359.200 178.514 C 359.200 178.217,358.818 178.563,356.786 180.700 M81.995 189.500 L 76.200 195.400 82.100 189.605 C 87.581 184.222,88.181 183.600,87.895 183.600 C 87.837 183.600,85.182 186.255,81.995 189.500 M168.900 183.887 C 169.505 183.978,170.495 183.978,171.100 183.887 C 171.705 183.795,171.210 183.720,170.000 183.720 C 168.790 183.720,168.295 183.795,168.900 183.887 M347.791 190.100 L 344.600 193.400 347.900 190.209 C 350.965 187.246,351.382 186.800,351.091 186.800 C 351.030 186.800,349.545 188.285,347.791 190.100 M139.375 195.300 L 138.200 196.600 139.500 195.425 C 140.712 194.330,140.984 194.000,140.675 194.000 C 140.606 194.000,140.021 194.585,139.375 195.300 M135.578 198.700 L 134.200 200.200 135.700 198.822 C 136.525 198.063,137.200 197.388,137.200 197.322 C 137.200 197.016,136.862 197.304,135.578 198.700 M272.793 202.700 L 268.600 207.000 272.900 202.807 C 275.265 200.501,277.200 198.566,277.200 198.507 C 277.200 198.218,276.687 198.706,272.793 202.700 M321.198 217.100 L 305.800 232.600 321.300 217.202 C 335.706 202.891,336.980 201.600,336.698 201.600 C 336.642 201.600,329.667 208.575,321.198 217.100 M122.197 211.700 L 113.400 220.600 122.300 211.803 C 130.570 203.630,131.380 202.800,131.097 202.800 C 131.040 202.800,127.035 206.805,122.197 211.700 M216.500 204.276 C 216.885 204.376,217.515 204.376,217.900 204.276 C 218.285 204.175,217.970 204.093,217.200 204.093 C 216.430 204.093,216.115 204.175,216.500 204.276 M220.900 204.276 C 221.285 204.376,221.915 204.376,222.300 204.276 C 222.685 204.175,222.370 204.093,221.600 204.093 C 220.830 204.093,220.515 204.175,220.900 204.276 M179.491 205.089 C 180.201 205.177,181.461 205.179,182.291 205.092 C 183.121 205.005,182.540 204.933,181.000 204.931 C 179.460 204.929,178.781 205.000,179.491 205.089 M165.186 211.900 L 163.000 214.200 165.300 212.014 C 167.437 209.982,167.783 209.600,167.486 209.600 C 167.424 209.600,166.389 210.635,165.186 211.900 M263.381 211.700 L 261.800 213.400 263.500 211.819 C 265.081 210.348,265.384 210.000,265.081 210.000 C 265.016 210.000,264.251 210.765,263.381 211.700 M51.400 220.000 C 48.106 223.300,45.500 226.000,45.610 226.000 C 45.720 226.000,48.506 223.300,51.800 220.000 C 55.094 216.700,57.700 214.000,57.590 214.000 C 57.480 214.000,54.694 216.700,51.400 220.000 M252.700 219.829 C 251.205 220.640,251.296 220.978,252.800 220.200 C 253.460 219.859,254.000 219.494,254.000 219.390 C 254.000 219.132,253.957 219.147,252.700 219.829 M158.893 224.400 C 158.893 225.170,158.975 225.485,159.076 225.100 C 159.176 224.715,159.176 224.085,159.076 223.700 C 158.975 223.315,158.893 223.630,158.893 224.400 M229.300 225.494 C 230.345 225.576,232.055 225.576,233.100 225.494 C 234.145 225.412,233.290 225.344,231.200 225.344 C 229.110 225.344,228.255 225.412,229.300 225.494 M158.893 229.600 C 158.893 230.370,158.975 230.685,159.076 230.300 C 159.176 229.915,159.176 229.285,159.076 228.900 C 158.975 228.515,158.893 228.830,158.893 229.600 M38.985 232.900 L 37.000 235.000 39.100 233.015 C 40.255 231.923,41.200 230.978,41.200 230.915 C 41.200 230.617,40.829 230.949,38.985 232.900 M97.375 236.500 L 96.200 237.800 97.500 236.625 C 98.215 235.979,98.800 235.394,98.800 235.325 C 98.800 235.016,98.470 235.288,97.375 236.500 M86.797 247.100 L 77.800 256.200 86.900 247.203 C 91.905 242.255,96.000 238.160,96.000 238.103 C 96.000 237.820,95.156 238.644,86.797 247.100 M296.185 241.700 L 294.200 243.800 296.300 241.815 C 298.251 239.971,298.583 239.600,298.285 239.600 C 298.222 239.600,297.277 240.545,296.185 241.700 M164.400 241.310 C 164.400 241.371,165.795 242.766,167.500 244.410 L 170.600 247.400 167.610 244.300 C 164.833 241.421,164.400 241.017,164.400 241.310 M290.175 247.300 L 289.000 248.600 290.300 247.425 C 291.512 246.330,291.784 246.000,291.475 246.000 C 291.406 246.000,290.821 246.585,290.175 247.300 M72.378 261.900 L 71.000 263.400 72.500 262.022 C 73.325 261.263,74.000 260.588,74.000 260.522 C 74.000 260.216,73.662 260.504,72.378 261.900 M68.575 266.100 L 67.400 267.400 68.700 266.225 C 69.912 265.130,70.184 264.800,69.875 264.800 C 69.806 264.800,69.221 265.385,68.575 266.100 M228.713 269.495 C 229.876 269.576,231.676 269.576,232.713 269.493 C 233.751 269.411,232.800 269.345,230.600 269.346 C 228.400 269.347,227.551 269.414,228.713 269.495 M180.398 295.500 L 165.800 310.200 180.584 295.600 C 188.716 287.570,195.451 280.955,195.551 280.900 C 195.651 280.845,195.567 280.800,195.365 280.800 C 195.162 280.800,188.427 287.415,180.398 295.500 M247.193 285.485 C 248.180 285.578,249.139 285.868,249.324 286.128 C 249.557 286.454,249.611 286.415,249.499 286.000 C 249.385 285.578,248.754 285.387,247.369 285.357 L 245.400 285.314 247.193 285.485 M217.300 285.876 C 217.685 285.976,218.315 285.976,218.700 285.876 C 219.085 285.775,218.770 285.693,218.000 285.693 C 217.230 285.693,216.915 285.775,217.300 285.876 M242.100 285.876 C 242.485 285.976,243.115 285.976,243.500 285.876 C 243.885 285.775,243.570 285.693,242.800 285.693 C 242.030 285.693,241.715 285.775,242.100 285.876 M221.300 286.276 C 221.685 286.376,222.315 286.376,222.700 286.276 C 223.085 286.175,222.770 286.093,222.000 286.093 C 221.230 286.093,220.915 286.175,221.300 286.276 M229.300 286.694 C 230.345 286.776,232.055 286.776,233.100 286.694 C 234.145 286.612,233.290 286.544,231.200 286.544 C 229.110 286.544,228.255 286.612,229.300 286.694 M244.175 292.500 L 243.000 293.800 244.300 292.625 C 245.015 291.979,245.600 291.394,245.600 291.325 C 245.600 291.016,245.270 291.288,244.175 292.500 M57.709 294.000 C 57.709 294.990,57.787 295.395,57.882 294.900 C 57.978 294.405,57.978 293.595,57.882 293.100 C 57.787 292.605,57.709 293.010,57.709 294.000 M241.178 295.900 L 239.800 297.400 241.300 296.022 C 242.696 294.738,242.984 294.400,242.678 294.400 C 242.612 294.400,241.937 295.075,241.178 295.900 M57.709 298.400 C 57.709 299.390,57.787 299.795,57.882 299.300 C 57.978 298.805,57.978 297.995,57.882 297.500 C 57.787 297.005,57.709 297.410,57.709 298.400 M236.386 301.100 L 234.200 303.400 236.500 301.214 C 238.637 299.182,238.983 298.800,238.686 298.800 C 238.624 298.800,237.589 299.835,236.386 301.100 M228.000 309.800 C 226.361 311.450,225.110 312.800,225.220 312.800 C 225.330 312.800,226.761 311.450,228.400 309.800 C 230.039 308.150,231.290 306.800,231.180 306.800 C 231.070 306.800,229.639 308.150,228.000 309.800 M153.392 322.100 L 149.800 325.800 153.500 322.208 C 156.936 318.872,157.382 318.400,157.092 318.400 C 157.032 318.400,155.367 320.065,153.392 322.100 M202.998 335.300 L 186.200 352.200 203.100 335.402 C 212.395 326.163,220.000 318.558,220.000 318.502 C 220.000 318.220,218.611 319.592,202.998 335.300 M144.788 330.300 L 142.200 333.000 144.900 330.412 C 147.408 328.007,147.783 327.600,147.488 327.600 C 147.427 327.600,146.212 328.815,144.788 330.300 M73.183 331.300 C 74.164 332.345,75.019 333.200,75.083 333.200 C 75.384 333.200,75.066 332.841,73.300 331.183 L 71.400 329.400 73.183 331.300 M108.307 346.690 C 109.026 346.779,110.106 346.777,110.707 346.686 C 111.308 346.595,110.720 346.522,109.400 346.524 C 108.080 346.526,107.588 346.601,108.307 346.690 M179.789 358.100 L 177.000 361.000 179.900 358.211 C 182.594 355.620,182.983 355.200,182.689 355.200 C 182.628 355.200,181.323 356.505,179.789 358.100 M40.800 361.400 C 41.995 362.610,43.063 363.600,43.173 363.600 C 43.283 363.600,42.395 362.610,41.200 361.400 C 40.005 360.190,38.937 359.200,38.827 359.200 C 38.717 359.200,39.605 360.190,40.800 361.400 M172.575 364.900 L 171.400 366.200 172.700 365.025 C 173.912 363.930,174.184 363.600,173.875 363.600 C 173.806 363.600,173.221 364.185,172.575 364.900 M45.600 365.725 C 45.600 365.794,46.185 366.379,46.900 367.025 L 48.200 368.200 47.025 366.900 C 45.930 365.688,45.600 365.416,45.600 365.725 M168.175 368.900 L 167.000 370.200 168.300 369.025 C 169.512 367.930,169.784 367.600,169.475 367.600 C 169.406 367.600,168.821 368.185,168.175 368.900 M99.500 390.282 C 99.995 390.378,100.805 390.378,101.300 390.282 C 101.795 390.187,101.390 390.109,100.400 390.109 C 99.410 390.109,99.005 390.187,99.500 390.282 M117.905 390.283 C 118.402 390.379,119.122 390.375,119.505 390.275 C 119.887 390.175,119.480 390.096,118.600 390.101 C 117.720 390.105,117.407 390.187,117.905 390.283 M106.917 390.697 C 108.411 390.774,110.751 390.774,112.117 390.696 C 113.482 390.618,112.260 390.555,109.400 390.555 C 106.540 390.556,105.422 390.620,106.917 390.697 " stroke="none" fill="#9d9d9d" fill-rule="evenodd"></path><path id="path3" d="M289.700 18.687 C 290.305 18.778,291.295 18.778,291.900 18.687 C 292.505 18.595,292.010 18.520,290.800 18.520 C 289.590 18.520,289.095 18.595,289.700 18.687 M290.905 62.287 C 291.514 62.379,292.414 62.377,292.905 62.282 C 293.397 62.187,292.900 62.111,291.800 62.114 C 290.700 62.117,290.297 62.195,290.905 62.287 M172.778 99.100 L 171.400 100.600 172.900 99.222 C 173.725 98.463,174.400 97.788,174.400 97.722 C 174.400 97.416,174.062 97.704,172.778 99.100 M161.375 110.900 L 160.200 112.200 161.500 111.025 C 162.712 109.930,162.984 109.600,162.675 109.600 C 162.606 109.600,162.021 110.185,161.375 110.900 M217.781 115.700 L 216.200 117.400 217.900 115.819 C 219.481 114.348,219.784 114.000,219.481 114.000 C 219.416 114.000,218.651 114.765,217.781 115.700 M212.591 120.900 L 209.400 124.200 212.700 121.009 C 214.515 119.255,216.000 117.770,216.000 117.709 C 216.000 117.418,215.554 117.835,212.591 120.900 M286.800 189.000 C 285.161 190.650,283.910 192.000,284.020 192.000 C 284.130 192.000,285.561 190.650,287.200 189.000 C 288.839 187.350,290.090 186.000,289.980 186.000 C 289.870 186.000,288.439 187.350,286.800 189.000 M342.386 195.500 L 340.200 197.800 342.500 195.614 C 344.637 193.582,344.983 193.200,344.686 193.200 C 344.624 193.200,343.589 194.235,342.386 195.500 M74.975 196.500 L 73.800 197.800 75.100 196.625 C 76.312 195.530,76.584 195.200,76.275 195.200 C 76.206 195.200,75.621 195.785,74.975 196.500 M68.189 203.300 L 65.400 206.200 68.300 203.411 C 69.895 201.877,71.200 200.572,71.200 200.511 C 71.200 200.217,70.780 200.606,68.189 203.300 M60.981 210.500 L 59.400 212.200 61.100 210.619 C 62.681 209.148,62.984 208.800,62.681 208.800 C 62.616 208.800,61.851 209.565,60.981 210.500 M158.901 227.000 C 158.905 227.880,158.987 228.193,159.083 227.695 C 159.179 227.198,159.175 226.478,159.075 226.095 C 158.975 225.713,158.896 226.120,158.901 227.000 M162.581 313.300 L 161.000 315.000 162.700 313.419 C 164.281 311.948,164.584 311.600,164.281 311.600 C 164.216 311.600,163.451 312.365,162.581 313.300 M223.775 314.100 L 222.600 315.400 223.900 314.225 C 225.112 313.130,225.384 312.800,225.075 312.800 C 225.006 312.800,224.421 313.385,223.775 314.100 " stroke="none" fill="#7c7c7c" fill-rule="evenodd"></path><path id="path4" d="M283.505 19.083 C 284.002 19.179,284.722 19.175,285.105 19.075 C 285.487 18.975,285.080 18.896,284.200 18.901 C 283.320 18.905,283.007 18.987,283.505 19.083 M296.705 19.083 C 297.202 19.179,297.922 19.175,298.305 19.075 C 298.687 18.975,298.280 18.896,297.400 18.901 C 296.520 18.905,296.207 18.987,296.705 19.083 M232.575 40.100 L 231.400 41.400 232.700 40.225 C 233.415 39.579,234.000 38.994,234.000 38.925 C 234.000 38.616,233.670 38.888,232.575 40.100 M354.200 43.600 C 355.059 44.480,355.852 45.200,355.962 45.200 C 356.072 45.200,355.459 44.480,354.600 43.600 C 353.741 42.720,352.948 42.000,352.838 42.000 C 352.728 42.000,353.341 42.720,354.200 43.600 M226.589 45.700 L 223.800 48.600 226.700 45.811 C 229.394 43.220,229.783 42.800,229.489 42.800 C 229.428 42.800,228.123 44.105,226.589 45.700 M360.400 49.725 C 360.400 49.794,360.985 50.379,361.700 51.025 L 363.000 52.200 361.825 50.900 C 360.730 49.688,360.400 49.416,360.400 49.725 M213.196 58.700 L 206.200 65.800 213.300 58.804 C 219.896 52.305,220.581 51.600,220.296 51.600 C 220.238 51.600,217.043 54.795,213.196 58.700 M287.500 62.282 C 287.995 62.378,288.805 62.378,289.300 62.282 C 289.795 62.187,289.390 62.109,288.400 62.109 C 287.410 62.109,287.005 62.187,287.500 62.282 M294.300 62.282 C 294.795 62.378,295.605 62.378,296.100 62.282 C 296.595 62.187,296.190 62.109,295.200 62.109 C 294.210 62.109,293.805 62.187,294.300 62.282 M201.375 70.500 L 200.200 71.800 201.500 70.625 C 202.215 69.979,202.800 69.394,202.800 69.325 C 202.800 69.016,202.470 69.288,201.375 70.500 M198.575 73.300 L 197.400 74.600 198.700 73.425 C 199.912 72.330,200.184 72.000,199.875 72.000 C 199.806 72.000,199.221 72.585,198.575 73.300 M325.400 76.400 C 326.483 77.500,327.460 78.400,327.570 78.400 C 327.680 78.400,326.883 77.500,325.800 76.400 C 324.717 75.300,323.740 74.400,323.630 74.400 C 323.520 74.400,324.317 75.300,325.400 76.400 M255.988 77.900 L 253.400 80.600 256.100 78.012 C 258.608 75.607,258.983 75.200,258.688 75.200 C 258.627 75.200,257.412 76.415,255.988 77.900 M329.400 80.400 C 330.259 81.280,331.052 82.000,331.162 82.000 C 331.272 82.000,330.659 81.280,329.800 80.400 C 328.941 79.520,328.148 78.800,328.038 78.800 C 327.928 78.800,328.541 79.520,329.400 80.400 M181.796 90.100 L 175.000 97.000 181.900 90.204 C 188.310 83.891,188.981 83.200,188.696 83.200 C 188.638 83.200,185.533 86.305,181.796 90.100 M236.998 96.500 L 223.800 109.800 237.100 96.602 C 244.415 89.344,250.400 83.359,250.400 83.302 C 250.400 83.020,249.263 84.139,236.998 96.500 M165.600 106.600 C 163.961 108.250,162.710 109.600,162.820 109.600 C 162.930 109.600,164.361 108.250,166.000 106.600 C 167.639 104.950,168.890 103.600,168.780 103.600 C 168.670 103.600,167.239 104.950,165.600 106.600 M342.157 113.600 C 342.157 116.570,342.220 117.785,342.297 116.300 C 342.374 114.815,342.374 112.385,342.297 110.900 C 342.220 109.415,342.157 110.630,342.157 113.600 M158.000 114.600 C 157.028 115.590,156.323 116.400,156.433 116.400 C 156.543 116.400,157.428 115.590,158.400 114.600 C 159.372 113.610,160.077 112.800,159.967 112.800 C 159.857 112.800,158.972 113.610,158.000 114.600 M385.693 119.200 C 385.693 119.970,385.775 120.285,385.876 119.900 C 385.976 119.515,385.976 118.885,385.876 118.500 C 385.775 118.115,385.693 118.430,385.693 119.200 M166.100 122.698 C 168.025 122.771,171.175 122.771,173.100 122.698 C 175.025 122.625,173.450 122.565,169.600 122.565 C 165.750 122.565,164.175 122.625,166.100 122.698 M337.878 134.605 C 337.512 135.372,337.295 136.000,337.396 136.000 C 337.670 136.000,338.884 133.551,338.701 133.368 C 338.614 133.281,338.244 133.838,337.878 134.605 M165.100 140.296 C 166.475 140.374,168.725 140.374,170.100 140.296 C 171.475 140.218,170.350 140.154,167.600 140.154 C 164.850 140.154,163.725 140.218,165.100 140.296 M328.985 146.500 L 327.000 148.600 329.100 146.615 C 331.051 144.771,331.383 144.400,331.085 144.400 C 331.022 144.400,330.077 145.345,328.985 146.500 M318.794 157.100 L 313.800 162.200 318.900 157.206 C 323.637 152.567,324.181 152.000,323.894 152.000 C 323.836 152.000,321.541 154.295,318.794 157.100 M107.600 165.000 C 106.628 165.990,105.923 166.800,106.033 166.800 C 106.143 166.800,107.028 165.990,108.000 165.000 C 108.972 164.010,109.677 163.200,109.567 163.200 C 109.457 163.200,108.572 164.010,107.600 165.000 M232.800 165.400 C 233.995 166.610,235.063 167.600,235.173 167.600 C 235.283 167.600,234.395 166.610,233.200 165.400 C 232.005 164.190,230.937 163.200,230.827 163.200 C 230.717 163.200,231.605 164.190,232.800 165.400 M366.975 169.300 L 365.800 170.600 367.100 169.425 C 367.815 168.779,368.400 168.194,368.400 168.125 C 368.400 167.816,368.070 168.088,366.975 169.300 M100.189 172.100 L 97.400 175.000 100.300 172.211 C 102.994 169.620,103.383 169.200,103.089 169.200 C 103.028 169.200,101.723 170.505,100.189 172.100 M363.781 172.900 L 362.200 174.600 363.900 173.019 C 365.481 171.548,365.784 171.200,365.481 171.200 C 365.416 171.200,364.651 171.965,363.781 172.900 M358.800 178.200 C 357.828 179.190,357.123 180.000,357.233 180.000 C 357.343 180.000,358.228 179.190,359.200 178.200 C 360.172 177.210,360.877 176.400,360.767 176.400 C 360.657 176.400,359.772 177.210,358.800 178.200 M87.193 184.700 L 82.600 189.400 87.300 184.807 C 91.666 180.540,92.182 180.000,91.893 180.000 C 91.835 180.000,89.720 182.115,87.193 184.700 M349.391 188.100 L 346.200 191.400 349.500 188.209 C 352.565 185.246,352.982 184.800,352.691 184.800 C 352.630 184.800,351.145 186.285,349.391 188.100 M275.400 200.400 C 272.106 203.700,269.500 206.400,269.610 206.400 C 269.720 206.400,272.506 203.700,275.800 200.400 C 279.094 197.100,281.700 194.400,281.590 194.400 C 281.480 194.400,278.694 197.100,275.400 200.400 M134.581 199.300 L 133.000 201.000 134.700 199.419 C 136.281 197.948,136.584 197.600,136.281 197.600 C 136.216 197.600,135.451 198.365,134.581 199.300 M332.996 204.900 L 325.800 212.200 333.100 205.004 C 337.115 201.046,340.400 197.761,340.400 197.704 C 340.400 197.419,339.681 198.118,332.996 204.900 M104.999 228.500 L 79.800 253.800 105.100 228.601 C 119.015 214.742,130.400 203.357,130.400 203.301 C 130.400 203.020,128.423 204.982,104.999 228.500 M178.500 205.476 C 178.885 205.576,179.515 205.576,179.900 205.476 C 180.285 205.375,179.970 205.293,179.200 205.293 C 178.430 205.293,178.115 205.375,178.500 205.476 M264.585 210.900 L 262.600 213.000 264.700 211.015 C 265.855 209.923,266.800 208.978,266.800 208.915 C 266.800 208.617,266.429 208.949,264.585 210.900 M321.381 216.500 L 319.800 218.200 321.500 216.619 C 323.081 215.148,323.384 214.800,323.081 214.800 C 323.016 214.800,322.251 215.565,321.381 216.500 M46.992 224.900 L 43.000 229.000 47.100 225.008 C 50.908 221.299,51.382 220.800,51.092 220.800 C 51.033 220.800,49.188 222.645,46.992 224.900 M308.195 229.700 L 301.800 236.200 308.300 229.805 C 314.339 223.863,314.981 223.200,314.695 223.200 C 314.638 223.200,311.713 226.125,308.195 229.700 M38.181 234.100 L 36.600 235.800 38.300 234.219 C 39.235 233.349,40.000 232.584,40.000 232.519 C 40.000 232.216,39.652 232.519,38.181 234.100 M164.400 240.925 C 164.400 240.994,164.985 241.579,165.700 242.225 L 167.000 243.400 165.825 242.100 C 164.730 240.888,164.400 240.616,164.400 240.925 M294.386 243.100 L 292.200 245.400 294.500 243.214 C 296.637 241.182,296.983 240.800,296.686 240.800 C 296.624 240.800,295.589 241.835,294.386 243.100 M169.000 245.600 C 169.859 246.480,170.652 247.200,170.762 247.200 C 170.872 247.200,170.259 246.480,169.400 245.600 C 168.541 244.720,167.748 244.000,167.638 244.000 C 167.528 244.000,168.141 244.720,169.000 245.600 M289.375 247.700 L 288.200 249.000 289.500 247.825 C 290.215 247.179,290.800 246.594,290.800 246.525 C 290.800 246.216,290.470 246.488,289.375 247.700 M271.500 259.227 C 270.675 259.663,270.000 260.108,270.000 260.218 C 270.000 260.396,273.159 258.919,273.567 258.551 C 274.027 258.134,272.825 258.528,271.500 259.227 M73.200 260.600 C 72.228 261.590,71.523 262.400,71.633 262.400 C 71.743 262.400,72.628 261.590,73.600 260.600 C 74.572 259.610,75.277 258.800,75.167 258.800 C 75.057 258.800,74.172 259.610,73.200 260.600 M223.900 269.082 C 224.395 269.178,225.205 269.178,225.700 269.082 C 226.195 268.987,225.790 268.909,224.800 268.909 C 223.810 268.909,223.405 268.987,223.900 269.082 M235.100 269.082 C 235.595 269.178,236.405 269.178,236.900 269.082 C 237.395 268.987,236.990 268.909,236.000 268.909 C 235.010 268.909,234.605 268.987,235.100 269.082 M186.600 289.600 C 181.984 294.220,178.297 298.000,178.407 298.000 C 178.517 298.000,182.384 294.220,187.000 289.600 C 191.616 284.980,195.303 281.200,195.193 281.200 C 195.083 281.200,191.216 284.980,186.600 289.600 M245.700 285.876 C 246.085 285.976,246.715 285.976,247.100 285.876 C 247.485 285.775,247.170 285.693,246.400 285.693 C 245.630 285.693,245.315 285.775,245.700 285.876 M223.905 286.683 C 224.402 286.779,225.122 286.775,225.505 286.675 C 225.887 286.575,225.480 286.496,224.600 286.501 C 223.720 286.505,223.407 286.587,223.905 286.683 M236.500 286.676 C 236.885 286.776,237.515 286.776,237.900 286.676 C 238.285 286.575,237.970 286.493,237.200 286.493 C 236.430 286.493,236.115 286.575,236.500 286.676 M241.381 295.300 L 239.800 297.000 241.500 295.419 C 243.081 293.948,243.384 293.600,243.081 293.600 C 243.016 293.600,242.251 294.365,241.381 295.300 M236.585 300.500 L 234.600 302.600 236.700 300.615 C 238.651 298.771,238.983 298.400,238.685 298.400 C 238.622 298.400,237.677 299.345,236.585 300.500 M230.386 307.100 L 228.200 309.400 230.500 307.214 C 232.637 305.182,232.983 304.800,232.686 304.800 C 232.624 304.800,231.589 305.835,230.386 307.100 M156.393 319.500 L 151.800 324.200 156.500 319.607 C 159.085 317.080,161.200 314.965,161.200 314.907 C 161.200 314.618,160.660 315.134,156.393 319.500 M218.393 319.500 L 214.200 323.800 218.500 319.607 C 222.494 315.713,222.982 315.200,222.693 315.200 C 222.634 315.200,220.699 317.135,218.393 319.500 M145.586 329.900 L 143.400 332.200 145.700 330.014 C 147.837 327.982,148.183 327.600,147.886 327.600 C 147.824 327.600,146.789 328.635,145.586 329.900 M139.578 335.500 L 138.200 337.000 139.700 335.622 C 141.096 334.338,141.384 334.000,141.078 334.000 C 141.012 334.000,140.337 334.675,139.578 335.500 M195.375 342.500 L 194.200 343.800 195.500 342.625 C 196.712 341.530,196.984 341.200,196.675 341.200 C 196.606 341.200,196.021 341.785,195.375 342.500 M103.700 346.676 C 104.085 346.776,104.715 346.776,105.100 346.676 C 105.485 346.575,105.170 346.493,104.400 346.493 C 103.630 346.493,103.315 346.575,103.700 346.676 M113.700 346.676 C 114.085 346.776,114.715 346.776,115.100 346.676 C 115.485 346.575,115.170 346.493,114.400 346.493 C 113.630 346.493,113.315 346.575,113.700 346.676 M187.791 350.100 L 184.600 353.400 187.900 350.209 C 190.965 347.246,191.382 346.800,191.091 346.800 C 191.030 346.800,189.545 348.285,187.791 350.100 M177.785 359.700 L 175.800 361.800 177.900 359.815 C 179.055 358.723,180.000 357.778,180.000 357.715 C 180.000 357.417,179.629 357.749,177.785 359.700 M41.600 361.800 C 43.017 363.230,44.267 364.400,44.377 364.400 C 44.487 364.400,43.417 363.230,42.000 361.800 C 40.583 360.370,39.333 359.200,39.223 359.200 C 39.113 359.200,40.183 360.370,41.600 361.800 M171.381 365.700 L 169.800 367.400 171.500 365.819 C 173.081 364.348,173.384 364.000,173.081 364.000 C 173.016 364.000,172.251 364.765,171.381 365.700 M103.105 390.283 C 103.602 390.379,104.322 390.375,104.705 390.275 C 105.087 390.175,104.680 390.096,103.800 390.101 C 102.920 390.105,102.607 390.187,103.105 390.283 M114.305 390.283 C 114.802 390.379,115.522 390.375,115.905 390.275 C 116.287 390.175,115.880 390.096,115.000 390.101 C 114.120 390.105,113.807 390.187,114.305 390.283 " stroke="none" fill="#747474" fill-rule="evenodd"></path></g></svg>