<svg id="svg" version="1.1" xmlns="http://www.w3.org/2000/svg" xmlns:xlink="http://www.w3.org/1999/xlink" width="400" height="400" viewBox="0, 0, 400,400"><g id="svgg"><path id="path0" d="M255.200 35.891 C 253.834 36.140,252.895 37.058,252.591 38.441 L 252.336 39.600 248.439 39.600 C 243.345 39.600,241.013 40.342,240.415 42.153 C 240.008 43.388,239.852 43.469,236.941 43.958 C 233.692 44.504,232.000 45.601,232.000 47.162 C 232.000 47.853,231.692 47.976,229.700 48.080 L 227.400 48.200 227.278 50.100 C 227.160 51.943,227.118 52.000,225.878 52.005 C 223.733 52.015,222.801 52.419,222.787 53.347 C 222.769 54.602,221.021 56.400,219.819 56.400 C 219.259 56.400,218.800 56.580,218.800 56.800 C 218.800 57.020,218.471 57.200,218.070 57.200 C 217.179 57.200,215.600 58.805,215.600 59.710 C 215.600 60.131,215.025 60.540,214.006 60.845 C 212.200 61.387,211.471 62.081,210.925 63.782 C 210.656 64.619,210.190 65.055,209.323 65.280 C 207.903 65.648,207.260 66.315,206.851 67.846 C 206.652 68.592,206.155 69.080,205.296 69.371 C 203.696 69.915,203.145 70.478,202.620 72.100 C 202.318 73.036,201.920 73.438,201.200 73.536 C 199.856 73.720,198.854 74.679,198.474 76.147 C 198.241 77.044,197.844 77.441,196.947 77.674 C 195.479 78.054,194.520 79.056,194.336 80.400 C 194.238 81.120,193.836 81.518,192.900 81.820 C 191.278 82.345,190.715 82.896,190.171 84.496 C 189.880 85.355,189.392 85.852,188.646 86.051 C 187.116 86.460,186.448 87.103,186.081 88.521 C 185.853 89.400,185.412 89.860,184.500 90.170 C 182.896 90.715,182.345 91.277,181.820 92.900 C 181.518 93.836,181.120 94.238,180.400 94.336 C 179.056 94.520,178.054 95.479,177.674 96.947 C 177.441 97.844,177.044 98.241,176.147 98.474 C 174.679 98.854,173.720 99.856,173.536 101.200 C 173.438 101.920,173.036 102.318,172.100 102.620 C 170.477 103.145,169.915 103.696,169.370 105.300 C 169.060 106.212,168.600 106.653,167.721 106.881 C 166.303 107.248,165.660 107.916,165.250 109.448 C 165.054 110.184,164.566 110.673,163.778 110.926 C 161.125 111.778,160.290 113.871,160.479 119.200 L 160.600 122.600 173.100 122.706 L 185.600 122.811 185.600 124.618 C 185.600 126.755,185.492 126.699,190.376 127.094 L 194.151 127.400 194.485 128.691 C 194.919 130.373,195.841 130.819,199.436 131.091 L 202.400 131.315 202.400 132.629 C 202.400 135.104,202.994 135.304,209.770 135.108 C 216.790 134.905,217.046 134.827,218.002 132.595 C 218.535 131.352,219.026 130.830,219.861 130.620 C 221.453 130.221,221.942 129.718,222.229 128.185 C 222.442 127.050,222.727 126.773,224.140 126.326 C 225.573 125.872,225.872 125.573,226.326 124.140 C 226.773 122.727,227.050 122.442,228.185 122.229 C 229.718 121.942,230.221 121.453,230.620 119.861 C 230.832 119.020,231.354 118.534,232.640 117.983 C 233.942 117.425,234.436 116.960,234.621 116.120 C 235.054 114.148,235.158 114.000,236.111 114.000 C 237.432 114.000,238.447 113.142,238.960 111.594 C 239.284 110.616,239.755 110.146,240.745 109.815 C 242.285 109.300,243.200 108.240,243.200 106.968 C 243.200 106.269,243.507 106.032,244.700 105.809 C 246.689 105.437,247.161 104.987,247.449 103.184 C 247.660 101.861,247.855 101.641,249.005 101.425 C 250.564 101.133,251.107 100.563,251.448 98.862 C 251.655 97.827,251.891 97.600,252.761 97.600 C 254.319 97.600,255.533 96.566,255.829 94.989 C 256.069 93.708,256.202 93.600,257.545 93.594 C 259.549 93.585,260.025 93.179,260.283 91.258 L 260.505 89.600 263.427 89.600 C 267.462 89.600,268.256 89.235,268.596 87.225 L 268.870 85.600 277.245 85.600 L 285.620 85.600 285.865 86.827 C 286.247 88.735,287.523 89.299,291.942 89.512 C 296.199 89.717,297.787 90.479,298.066 92.451 C 298.182 93.272,298.449 93.416,300.050 93.520 L 301.900 93.640 302.103 95.440 C 302.353 97.651,302.349 97.647,304.560 97.897 L 306.360 98.100 306.480 99.950 L 306.600 101.800 308.500 101.922 L 310.400 102.044 310.400 105.888 C 310.400 108.660,310.560 109.910,310.972 110.366 C 313.032 112.648,313.500 113.100,313.961 113.254 C 314.506 113.435,314.794 130.539,314.262 131.072 C 314.123 131.211,313.340 131.433,312.522 131.566 C 310.749 131.854,310.498 132.467,310.440 136.647 L 310.400 139.495 308.742 139.717 C 306.821 139.975,306.415 140.451,306.406 142.455 C 306.400 143.798,306.292 143.931,305.011 144.171 C 303.432 144.468,302.400 145.682,302.400 147.244 C 302.400 148.141,302.183 148.352,301.040 148.566 C 299.437 148.867,298.895 149.427,298.553 151.136 C 298.344 152.180,298.038 152.467,296.767 152.809 C 295.067 153.267,294.787 153.571,294.423 155.351 C 294.221 156.335,293.915 156.625,292.849 156.843 C 291.244 157.172,290.732 157.645,290.168 159.318 C 289.857 160.241,289.363 160.723,288.406 161.040 C 286.858 161.553,286.000 162.568,286.000 163.889 C 286.000 164.842,285.852 164.946,283.880 165.379 C 283.040 165.564,282.575 166.058,282.017 167.360 C 281.466 168.646,280.980 169.168,280.139 169.380 C 278.547 169.779,278.058 170.282,277.771 171.815 C 277.558 172.950,277.273 173.227,275.860 173.674 C 274.427 174.128,274.128 174.427,273.674 175.860 C 273.227 177.273,272.950 177.558,271.815 177.771 C 270.282 178.058,269.779 178.547,269.380 180.139 C 269.168 180.980,268.646 181.466,267.360 182.017 C 266.058 182.575,265.564 183.040,265.379 183.880 C 264.946 185.852,264.842 186.000,263.889 186.000 C 262.568 186.000,261.553 186.858,261.040 188.406 C 260.723 189.363,260.241 189.857,259.318 190.168 C 257.645 190.732,257.172 191.244,256.843 192.849 C 256.625 193.915,256.335 194.221,255.351 194.423 C 253.571 194.787,253.267 195.067,252.809 196.767 C 252.467 198.038,252.180 198.344,251.136 198.553 C 249.428 198.894,248.867 199.436,248.567 201.037 C 248.350 202.194,248.087 202.453,246.773 202.807 C 245.067 203.267,244.787 203.570,244.423 205.351 C 244.223 206.326,243.913 206.626,242.889 206.835 C 241.216 207.178,240.508 207.797,240.203 209.187 C 239.953 210.325,239.129 210.783,237.314 210.795 C 236.268 210.801,235.600 211.876,235.600 213.553 C 235.600 214.725,235.542 214.762,233.500 214.879 L 231.400 215.000 231.278 216.900 L 231.156 218.800 216.578 218.800 L 202.000 218.800 202.000 217.574 C 202.000 215.403,201.400 214.800,199.242 214.800 C 198.180 214.800,196.485 214.687,195.476 214.548 L 193.640 214.297 193.520 212.448 L 193.400 210.600 191.521 210.479 L 189.642 210.358 189.521 208.479 L 189.400 206.600 187.300 206.479 L 185.200 206.358 185.200 203.153 C 185.200 199.217,184.891 198.581,182.815 198.249 L 181.200 197.991 181.200 194.209 C 181.200 189.569,181.220 189.585,175.526 189.640 C 169.921 189.694,169.485 189.845,169.029 191.885 C 168.669 193.495,168.600 193.552,166.729 193.810 L 164.800 194.075 164.800 196.017 L 164.800 197.958 162.700 198.079 L 160.600 198.200 160.478 200.100 C 160.358 201.966,160.332 202.000,159.011 202.000 C 156.706 202.000,156.400 202.287,156.400 204.443 L 156.400 206.400 154.447 206.400 C 152.305 206.400,152.017 206.766,152.005 209.500 C 152.001 210.602,151.855 210.800,151.044 210.800 C 148.420 210.800,148.200 211.534,148.200 220.281 C 148.200 229.086,148.473 230.195,150.751 230.650 C 151.733 230.847,151.910 231.120,152.233 232.937 L 152.600 235.000 154.500 235.122 L 156.400 235.244 156.400 237.179 C 156.400 239.315,156.709 239.600,159.033 239.600 C 160.322 239.600,160.400 239.678,160.400 240.967 C 160.400 243.291,160.685 243.600,162.821 243.600 L 164.756 243.600 164.878 245.500 L 165.000 247.400 167.100 247.773 C 168.858 248.085,169.200 248.285,169.200 248.997 C 169.200 250.956,171.266 251.939,175.478 251.983 L 177.156 252.000 177.278 253.900 L 177.400 255.800 181.500 256.143 L 185.600 256.486 185.600 258.029 C 185.600 260.185,186.232 260.400,192.574 260.400 L 198.000 260.400 198.000 261.724 C 198.000 264.603,196.436 264.432,221.602 264.310 C 246.616 264.188,246.239 264.227,246.983 261.700 L 247.365 260.400 251.183 260.398 C 256.174 260.396,258.834 259.531,259.370 257.734 C 259.705 256.607,259.926 256.472,261.780 256.254 C 264.677 255.913,267.165 254.620,267.661 253.196 C 268.035 252.125,268.235 252.029,270.333 251.919 L 272.600 251.800 272.722 249.900 C 272.840 248.057,272.882 248.000,274.122 247.995 C 276.267 247.985,277.199 247.581,277.213 246.653 C 277.230 245.513,278.959 243.600,279.973 243.600 C 281.907 243.600,283.926 242.367,284.551 240.805 C 285.013 239.650,285.456 239.207,286.341 239.013 C 287.717 238.711,288.547 237.862,289.075 236.218 C 289.344 235.381,289.810 234.945,290.677 234.720 C 292.097 234.352,292.740 233.685,293.149 232.154 C 293.348 231.408,293.845 230.920,294.704 230.629 C 296.304 230.085,296.855 229.522,297.380 227.900 C 297.682 226.964,298.080 226.562,298.800 226.464 C 300.144 226.280,301.146 225.321,301.526 223.853 C 301.759 222.956,302.156 222.559,303.053 222.326 C 304.521 221.946,305.480 220.944,305.664 219.600 C 305.762 218.880,306.164 218.482,307.100 218.180 C 308.723 217.655,309.285 217.104,309.830 215.500 C 310.140 214.588,310.600 214.147,311.479 213.919 C 312.897 213.552,313.540 212.884,313.949 211.354 C 314.148 210.608,314.645 210.120,315.504 209.829 C 317.104 209.285,317.655 208.722,318.180 207.100 C 318.482 206.164,318.880 205.762,319.600 205.664 C 320.944 205.480,321.946 204.521,322.326 203.053 C 322.559 202.156,322.956 201.759,323.853 201.526 C 325.321 201.146,326.280 200.144,326.464 198.800 C 326.562 198.080,326.964 197.682,327.900 197.380 C 329.523 196.855,330.085 196.304,330.630 194.700 C 330.940 193.788,331.400 193.347,332.279 193.119 C 333.697 192.752,334.340 192.084,334.750 190.552 C 334.946 189.816,335.434 189.327,336.222 189.074 C 337.862 188.547,338.711 187.716,339.013 186.341 C 339.207 185.456,339.650 185.013,340.805 184.551 C 342.367 183.926,343.600 181.907,343.600 179.973 C 343.600 178.959,345.513 177.230,346.653 177.213 C 347.581 177.199,347.985 176.267,347.995 174.122 C 348.000 172.882,348.057 172.840,349.900 172.722 L 351.800 172.600 351.919 170.333 C 352.029 168.235,352.125 168.035,353.196 167.661 C 354.620 167.165,355.913 164.677,356.254 161.780 C 356.473 159.919,356.604 159.706,357.747 159.370 C 359.445 158.869,360.104 156.930,360.382 151.624 L 360.600 147.448 361.891 147.115 C 364.243 146.508,364.190 147.058,364.316 122.006 C 364.445 96.385,364.619 98.000,361.724 98.000 L 360.400 98.000 360.400 92.574 C 360.400 86.232,360.185 85.600,358.029 85.600 L 356.486 85.600 356.143 81.500 L 355.800 77.400 353.956 77.280 L 352.112 77.161 351.839 73.894 C 351.538 70.277,350.935 69.200,349.211 69.200 C 348.240 69.200,348.113 69.014,347.773 67.100 L 347.400 65.000 345.500 64.878 L 343.600 64.756 343.600 62.821 C 343.600 60.685,343.291 60.400,340.967 60.400 C 339.678 60.400,339.600 60.322,339.600 59.033 C 339.600 56.709,339.315 56.400,337.179 56.400 L 335.244 56.400 335.122 54.500 L 335.000 52.600 332.900 52.227 C 331.142 51.915,330.800 51.715,330.800 51.003 C 330.800 49.044,328.734 48.061,324.522 48.017 L 322.844 48.000 322.722 46.100 L 322.600 44.200 318.500 43.857 L 314.400 43.514 314.400 41.971 C 314.400 39.815,313.768 39.600,307.426 39.600 L 302.000 39.600 302.000 38.374 C 302.000 35.380,303.830 35.594,278.686 35.654 C 266.319 35.684,255.750 35.791,255.200 35.891 M155.200 135.891 C 153.834 136.140,152.895 137.058,152.591 138.441 L 152.336 139.600 148.439 139.600 C 143.345 139.600,141.013 140.342,140.415 142.153 C 140.008 143.388,139.852 143.469,136.941 143.958 C 133.692 144.504,132.000 145.601,132.000 147.162 C 132.000 147.853,131.692 147.976,129.700 148.080 L 127.400 148.200 127.278 150.100 C 127.160 151.943,127.118 152.000,125.878 152.005 C 123.733 152.015,122.801 152.419,122.787 153.347 C 122.770 154.487,121.041 156.400,120.027 156.400 C 118.093 156.400,116.074 157.633,115.449 159.195 C 114.987 160.350,114.544 160.793,113.659 160.987 C 112.283 161.289,111.453 162.138,110.925 163.782 C 110.656 164.619,110.190 165.055,109.323 165.280 C 107.903 165.648,107.260 166.315,106.851 167.846 C 106.652 168.592,106.155 169.080,105.296 169.371 C 103.696 169.915,103.145 170.478,102.620 172.100 C 102.318 173.036,101.920 173.438,101.200 173.536 C 99.856 173.720,98.854 174.679,98.474 176.147 C 98.241 177.044,97.844 177.441,96.947 177.674 C 95.479 178.054,94.520 179.056,94.336 180.400 C 94.238 181.120,93.836 181.518,92.900 181.820 C 91.278 182.345,90.715 182.896,90.171 184.496 C 89.880 185.355,89.392 185.852,88.646 186.051 C 87.116 186.460,86.448 187.103,86.081 188.521 C 85.853 189.400,85.412 189.860,84.500 190.170 C 82.896 190.715,82.345 191.277,81.820 192.900 C 81.518 193.836,81.120 194.238,80.400 194.336 C 79.056 194.520,78.054 195.479,77.674 196.947 C 77.441 197.844,77.044 198.241,76.147 198.474 C 74.679 198.854,73.720 199.856,73.536 201.200 C 73.438 201.920,73.036 202.318,72.100 202.620 C 70.477 203.145,69.915 203.696,69.370 205.300 C 69.060 206.212,68.600 206.653,67.721 206.881 C 66.303 207.248,65.660 207.916,65.250 209.448 C 65.054 210.184,64.566 210.673,63.778 210.926 C 62.138 211.453,61.289 212.284,60.987 213.659 C 60.793 214.544,60.350 214.987,59.195 215.449 C 57.633 216.074,56.400 218.093,56.400 220.027 C 56.400 221.041,54.487 222.770,53.347 222.787 C 52.419 222.801,52.015 223.733,52.005 225.878 C 52.000 227.118,51.943 227.160,50.100 227.278 L 48.200 227.400 48.079 229.514 C 47.964 231.509,47.889 231.642,46.752 231.870 C 45.133 232.193,44.562 233.221,43.956 236.894 C 43.467 239.859,43.392 240.007,42.153 240.415 C 40.347 241.012,39.600 243.347,39.600 248.401 L 39.600 252.259 38.100 252.629 C 35.633 253.239,35.648 253.082,35.623 278.486 C 35.597 303.850,35.381 302.000,38.374 302.000 L 39.600 302.000 39.600 307.426 C 39.600 313.768,39.815 314.400,41.971 314.400 L 43.514 314.400 43.857 318.500 L 44.200 322.600 46.100 322.722 L 48.000 322.844 48.017 324.522 C 48.061 328.734,49.044 330.800,51.003 330.800 C 51.715 330.800,51.915 331.142,52.227 332.900 L 52.600 335.000 54.500 335.122 L 56.400 335.244 56.400 337.179 C 56.400 339.315,56.709 339.600,59.033 339.600 C 60.322 339.600,60.400 339.678,60.400 340.967 C 60.400 343.291,60.685 343.600,62.821 343.600 L 64.756 343.600 64.878 345.500 L 65.000 347.400 67.100 347.773 C 68.858 348.085,69.200 348.285,69.200 348.997 C 69.200 350.956,71.266 351.939,75.478 351.983 L 77.156 352.000 77.278 353.900 L 77.400 355.800 81.500 356.143 L 85.600 356.486 85.600 358.029 C 85.600 360.185,86.232 360.400,92.574 360.400 L 98.000 360.400 98.000 361.724 C 98.000 364.603,96.436 364.432,121.602 364.310 C 146.616 364.188,146.239 364.227,146.983 361.700 L 147.365 360.400 151.183 360.398 C 156.174 360.396,158.834 359.531,159.370 357.734 C 159.705 356.607,159.926 356.472,161.780 356.254 C 164.677 355.913,167.165 354.620,167.661 353.196 C 168.035 352.125,168.235 352.029,170.333 351.919 L 172.600 351.800 172.722 349.900 C 172.840 348.057,172.882 348.000,174.122 347.995 C 176.267 347.985,177.199 347.581,177.213 346.653 C 177.234 345.209,178.871 343.755,180.827 343.443 C 183.169 343.069,184.306 342.273,184.707 340.728 C 184.948 339.798,185.373 339.345,186.300 339.030 C 187.893 338.489,188.489 337.893,189.030 336.300 C 189.340 335.388,189.800 334.947,190.679 334.719 C 192.102 334.351,192.740 333.684,193.155 332.133 C 193.399 331.218,193.758 330.955,195.121 330.685 C 196.679 330.377,196.825 330.231,197.334 328.478 C 197.765 326.994,198.081 326.571,198.840 326.464 C 200.149 326.277,201.150 325.305,201.526 323.853 C 201.759 322.956,202.156 322.559,203.053 322.326 C 204.521 321.946,205.480 320.944,205.664 319.600 C 205.762 318.880,206.164 318.482,207.100 318.180 C 208.723 317.655,209.285 317.104,209.830 315.500 C 210.140 314.588,210.600 314.147,211.479 313.919 C 212.897 313.552,213.540 312.884,213.949 311.354 C 214.148 310.608,214.645 310.120,215.504 309.829 C 217.104 309.285,217.655 308.722,218.180 307.100 C 218.482 306.164,218.880 305.762,219.600 305.664 C 220.949 305.479,221.946 304.520,222.331 303.035 C 222.598 302.003,222.894 301.766,224.166 301.559 C 225.842 301.287,226.267 300.829,226.639 298.896 C 226.828 297.916,227.152 297.531,227.945 297.343 C 229.409 296.996,230.310 296.122,230.609 294.758 C 230.792 293.926,231.165 293.532,231.932 293.362 C 234.271 292.844,234.405 292.735,234.843 290.995 C 235.204 289.560,235.484 289.201,236.400 289.000 C 238.746 288.485,239.715 285.943,239.525 280.800 L 239.400 277.400 226.900 277.294 L 214.400 277.189 214.400 275.382 C 214.400 273.211,214.387 273.205,209.534 272.861 L 205.849 272.600 205.515 271.309 C 205.081 269.628,204.159 269.181,200.564 268.909 L 197.600 268.685 197.600 267.371 C 197.600 264.896,197.006 264.696,190.230 264.892 C 183.210 265.095,182.954 265.173,181.998 267.405 C 181.465 268.648,180.974 269.170,180.139 269.380 C 178.547 269.779,178.058 270.282,177.771 271.815 C 177.558 272.950,177.273 273.227,175.860 273.674 C 174.427 274.128,174.128 274.427,173.674 275.860 C 173.227 277.273,172.950 277.558,171.815 277.771 C 170.282 278.058,169.779 278.547,169.380 280.139 C 169.168 280.980,168.646 281.466,167.360 282.017 C 166.058 282.575,165.564 283.040,165.379 283.880 C 164.946 285.852,164.842 286.000,163.889 286.000 C 162.568 286.000,161.553 286.858,161.040 288.406 C 160.723 289.363,160.241 289.857,159.318 290.168 C 157.645 290.732,157.172 291.244,156.843 292.849 C 156.625 293.915,156.335 294.221,155.351 294.423 C 153.571 294.787,153.267 295.067,152.809 296.767 C 152.467 298.038,152.180 298.344,151.136 298.553 C 149.427 298.895,148.867 299.437,148.566 301.040 C 148.352 302.183,148.141 302.400,147.244 302.400 C 145.682 302.400,144.468 303.432,144.171 305.011 C 143.931 306.292,143.798 306.400,142.455 306.406 C 140.451 306.415,139.975 306.821,139.717 308.742 L 139.495 310.400 136.573 310.400 C 132.538 310.400,131.744 310.765,131.404 312.775 L 131.130 314.400 122.755 314.400 L 114.380 314.400 114.135 313.173 C 113.753 311.265,112.477 310.701,108.058 310.488 C 103.801 310.283,102.213 309.521,101.934 307.549 C 101.818 306.728,101.551 306.584,99.950 306.480 L 98.100 306.360 97.897 304.560 C 97.647 302.349,97.651 302.353,95.440 302.103 L 93.640 301.900 93.520 300.050 L 93.400 298.200 91.500 298.078 L 89.600 297.956 89.600 293.998 C 89.600 291.226,89.447 289.944,89.090 289.720 C 88.810 289.544,88.275 288.919,87.901 288.330 C 87.527 287.742,86.884 287.154,86.472 287.023 C 85.590 286.743,85.118 279.214,85.556 272.400 L 85.800 268.600 87.398 268.400 C 89.249 268.168,89.473 267.622,89.553 263.153 L 89.600 260.505 91.258 260.283 C 93.179 260.025,93.585 259.549,93.594 257.545 C 93.600 256.202,93.708 256.069,94.989 255.829 C 96.568 255.532,97.600 254.318,97.600 252.756 C 97.600 251.859,97.817 251.648,98.960 251.434 C 100.563 251.133,101.105 250.573,101.447 248.864 C 101.656 247.820,101.962 247.533,103.233 247.191 C 104.933 246.733,105.213 246.429,105.577 244.649 C 105.779 243.665,106.085 243.375,107.151 243.157 C 108.756 242.828,109.268 242.355,109.832 240.682 C 110.143 239.759,110.637 239.277,111.594 238.960 C 113.142 238.447,114.000 237.432,114.000 236.111 C 114.000 235.158,114.148 235.054,116.120 234.621 C 116.960 234.436,117.425 233.942,117.983 232.640 C 118.534 231.354,119.020 230.832,119.861 230.620 C 121.453 230.221,121.942 229.718,122.229 228.185 C 122.442 227.050,122.727 226.773,124.140 226.326 C 125.573 225.872,125.872 225.573,126.326 224.140 C 126.773 222.727,127.050 222.442,128.185 222.229 C 129.718 221.942,130.221 221.453,130.620 219.861 C 130.832 219.020,131.354 218.534,132.640 217.983 C 133.942 217.425,134.436 216.960,134.621 216.120 C 135.054 214.148,135.158 214.000,136.111 214.000 C 137.432 214.000,138.447 213.142,138.960 211.594 C 139.277 210.637,139.759 210.143,140.682 209.832 C 142.355 209.268,142.828 208.756,143.157 207.151 C 143.375 206.085,143.665 205.779,144.649 205.577 C 146.430 205.213,146.733 204.933,147.193 203.227 C 147.547 201.913,147.806 201.650,148.963 201.433 C 150.564 201.133,151.106 200.572,151.447 198.864 C 151.656 197.820,151.962 197.533,153.233 197.191 C 154.933 196.733,155.213 196.429,155.577 194.649 C 155.777 193.674,156.087 193.374,157.111 193.165 C 158.784 192.822,159.492 192.203,159.797 190.813 C 160.047 189.675,160.871 189.217,162.686 189.205 C 163.732 189.199,164.400 188.124,164.400 186.447 C 164.400 185.275,164.458 185.238,166.500 185.121 L 168.600 185.000 168.722 183.100 L 168.844 181.200 183.422 181.200 L 198.000 181.200 198.000 182.426 C 198.000 184.597,198.600 185.200,200.758 185.200 C 201.820 185.200,203.515 185.313,204.524 185.452 L 206.360 185.703 206.480 187.552 L 206.600 189.400 208.479 189.521 L 210.358 189.642 210.479 191.521 L 210.600 193.400 212.700 193.521 L 214.800 193.642 214.800 196.847 C 214.800 200.783,215.109 201.419,217.185 201.751 L 218.800 202.009 218.800 205.791 C 218.800 210.431,218.780 210.415,224.474 210.360 C 230.079 210.306,230.515 210.155,230.971 208.115 C 231.331 206.505,231.400 206.448,233.271 206.190 L 235.200 205.925 235.200 203.983 L 235.200 202.042 237.300 201.921 L 239.400 201.800 239.522 199.900 C 239.642 198.034,239.668 198.000,240.989 198.000 C 243.294 198.000,243.600 197.713,243.600 195.557 L 243.600 193.600 245.557 193.600 C 247.751 193.600,248.000 193.312,248.000 190.767 C 248.000 189.301,248.076 189.200,249.171 189.200 C 251.690 189.200,252.175 187.189,251.943 177.698 C 251.783 171.112,251.350 169.770,249.249 169.350 C 248.267 169.153,248.090 168.880,247.767 167.063 L 247.400 165.000 245.500 164.878 L 243.600 164.756 243.600 162.821 C 243.600 160.685,243.291 160.400,240.967 160.400 C 239.678 160.400,239.600 160.322,239.600 159.033 C 239.600 156.709,239.315 156.400,237.179 156.400 L 235.244 156.400 235.122 154.500 L 235.000 152.600 232.900 152.227 C 231.142 151.915,230.800 151.715,230.800 151.003 C 230.800 149.044,228.734 148.061,224.522 148.017 L 222.844 148.000 222.722 146.100 L 222.600 144.200 218.500 143.857 L 214.400 143.514 214.400 141.971 C 214.400 139.815,213.768 139.600,207.426 139.600 L 202.000 139.600 202.000 138.374 C 202.000 135.380,203.830 135.594,178.686 135.654 C 166.319 135.684,155.750 135.791,155.200 135.891 " stroke="none" fill="#040404" fill-rule="evenodd"></path><path id="path1" d="" stroke="none" fill="#080404" fill-rule="evenodd"></path></g></svg>