<svg id="svg" version="1.1" xmlns="http://www.w3.org/2000/svg" xmlns:xlink="http://www.w3.org/1999/xlink" width="400" height="400" viewBox="0, 0, 400,400"><g id="svgg"><path id="path0" d="M283.503 17.248 C 266.808 19.398,249.066 27.233,235.600 38.404 C 233.510 40.137,216.700 56.666,198.245 75.134 L 164.690 108.712 168.045 107.737 C 182.292 103.597,210.224 108.384,219.510 116.557 L 220.419 117.358 242.710 95.153 C 270.942 67.029,274.214 64.680,288.134 62.545 C 323.910 57.058,345.035 95.575,323.264 126.600 C 321.133 129.637,248.904 203.044,244.037 207.120 C 225.910 222.298,202.991 222.650,186.600 208.003 C 180.319 202.390,173.732 200.365,166.183 201.726 C 148.609 204.895,141.561 226.428,153.800 239.559 C 176.499 263.913,216.318 271.121,248.764 256.748 C 262.492 250.668,269.058 245.746,286.557 228.422 C 350.431 165.187,356.349 159.076,362.303 150.193 C 384.289 117.394,382.315 73.651,357.566 45.187 C 339.371 24.261,311.294 13.670,283.503 17.248 M174.800 130.287 C 155.952 131.826,136.172 140.019,121.600 152.324 C 116.727 156.439,39.996 233.350,37.322 236.800 C 9.016 273.319,10.019 321.659,39.719 352.357 C 70.175 383.835,118.097 386.371,155.600 358.490 C 161.996 353.735,231.274 284.715,228.400 285.961 C 216.578 291.087,185.868 286.662,175.463 278.333 L 173.926 277.103 151.863 299.083 C 136.137 314.750,128.881 321.702,126.600 323.288 C 85.244 352.036,41.730 306.431,72.246 266.320 C 76.815 260.315,150.716 186.530,154.873 183.823 C 172.920 172.073,193.107 173.054,207.795 186.396 C 230.186 206.733,260.863 176.151,240.019 154.271 C 224.339 137.811,198.596 128.344,174.800 130.287 " stroke="none" fill="#040404" fill-rule="evenodd"></path><path id="path1" d="M0.000 200.000 L 0.000 400.000 200.000 400.000 L 400.000 400.000 400.000 200.000 L 400.000 0.000 200.000 0.000 L 0.000 0.000 0.000 200.000 M300.642 16.410 C 351.445 20.444,385.436 65.162,376.569 116.297 C 375.042 125.102,369.725 139.175,365.127 146.579 C 359.016 156.420,355.842 160.240,344.224 171.733 C 339.591 176.316,323.020 192.800,307.400 208.364 C 291.780 223.927,277.515 238.036,275.699 239.716 C 240.394 272.384,186.269 272.844,154.343 240.746 C 132.797 219.084,163.740 186.714,186.342 207.270 C 203.250 222.647,228.073 221.832,245.289 205.333 C 251.934 198.966,318.486 131.873,320.413 129.600 C 349.513 95.269,317.896 48.476,277.471 66.044 C 269.143 69.663,266.518 71.905,242.410 95.982 C 230.505 107.872,220.634 117.600,220.474 117.600 C 220.313 117.600,219.556 117.085,218.791 116.455 C 208.389 107.893,177.524 103.673,165.426 109.159 C 161.844 110.783,159.368 113.424,194.388 78.275 C 232.490 40.032,235.304 37.387,243.801 31.831 C 245.120 30.969,246.714 29.914,247.341 29.489 C 260.346 20.672,283.320 15.034,300.642 16.410 M187.200 130.014 C 207.556 131.440,225.938 139.612,239.774 153.385 C 252.842 166.394,247.837 187.263,230.379 192.562 C 222.040 195.093,214.830 193.092,206.695 185.989 C 195.578 176.281,181.664 173.658,166.800 178.467 C 157.824 181.370,153.183 184.767,139.858 198.186 C 134.170 203.913,117.144 221.027,102.023 236.215 C 71.620 266.754,69.745 268.903,66.086 277.400 C 51.929 310.275,81.736 341.787,115.000 329.113 C 124.853 325.359,125.361 324.933,153.053 297.248 C 164.303 286.002,173.605 276.800,173.725 276.800 C 173.845 276.800,174.991 277.495,176.272 278.345 C 189.783 287.311,217.505 290.787,229.386 285.004 C 230.478 284.473,231.449 284.116,231.545 284.211 C 231.782 284.449,164.940 351.197,161.200 354.456 C 104.645 403.739,21.066 371.744,16.447 299.043 C 14.952 275.502,24.074 250.690,41.150 231.856 C 46.778 225.648,115.327 157.259,120.108 153.081 C 122.258 151.203,125.024 148.977,126.255 148.133 C 143.881 136.057,160.283 130.381,179.600 129.674 C 180.590 129.638,184.010 129.791,187.200 130.014 " stroke="none" fill="#f3f3f3" fill-rule="evenodd"></path><path id="path2" d="M293.500 62.282 C 293.995 62.378,294.805 62.378,295.300 62.282 C 295.795 62.187,295.390 62.109,294.400 62.109 C 293.410 62.109,293.005 62.187,293.500 62.282 M377.693 97.200 C 377.693 97.970,377.775 98.285,377.876 97.900 C 377.976 97.515,377.976 96.885,377.876 96.500 C 377.775 96.115,377.693 96.430,377.693 97.200 M377.693 102.800 C 377.693 103.570,377.775 103.885,377.876 103.500 C 377.976 103.115,377.976 102.485,377.876 102.100 C 377.775 101.715,377.693 102.030,377.693 102.800 M293.381 157.300 L 291.800 159.000 293.500 157.419 C 295.081 155.948,295.384 155.600,295.081 155.600 C 295.016 155.600,294.251 156.365,293.381 157.300 M286.800 163.800 C 285.828 164.790,285.123 165.600,285.233 165.600 C 285.343 165.600,286.228 164.790,287.200 163.800 C 288.172 162.810,288.877 162.000,288.767 162.000 C 288.657 162.000,287.772 162.810,286.800 163.800 M246.901 170.600 C 246.905 171.480,246.987 171.793,247.083 171.295 C 247.179 170.798,247.175 170.078,247.075 169.695 C 246.975 169.313,246.896 169.720,246.901 170.600 M179.900 175.882 C 180.395 175.978,181.205 175.978,181.700 175.882 C 182.195 175.787,181.790 175.709,180.800 175.709 C 179.810 175.709,179.405 175.787,179.900 175.882 M331.792 183.700 L 327.800 187.800 331.900 183.808 C 334.155 181.612,336.000 179.767,336.000 179.708 C 336.000 179.418,335.501 179.892,331.792 183.700 M90.581 247.300 L 89.000 249.000 90.700 247.419 C 92.281 245.948,92.584 245.600,92.281 245.600 C 92.216 245.600,91.451 246.365,90.581 247.300 M83.600 254.200 C 82.628 255.190,81.923 256.000,82.033 256.000 C 82.143 256.000,83.028 255.190,84.000 254.200 C 84.972 253.210,85.677 252.400,85.567 252.400 C 85.457 252.400,84.572 253.210,83.600 254.200 " stroke="none" fill="#747474" fill-rule="evenodd"></path><path id="path3" d="M291.913 16.295 C 293.076 16.376,294.876 16.376,295.913 16.293 C 296.951 16.211,296.000 16.145,293.800 16.146 C 291.600 16.147,290.751 16.214,291.913 16.295 M286.300 16.682 C 286.795 16.778,287.605 16.778,288.100 16.682 C 288.595 16.587,288.190 16.509,287.200 16.509 C 286.210 16.509,285.805 16.587,286.300 16.682 M300.700 16.682 C 301.195 16.778,302.005 16.778,302.500 16.682 C 302.995 16.587,302.590 16.509,301.600 16.509 C 300.610 16.509,300.205 16.587,300.700 16.682 M304.900 17.076 C 305.285 17.176,305.915 17.176,306.300 17.076 C 306.685 16.975,306.370 16.893,305.600 16.893 C 304.830 16.893,304.515 16.975,304.900 17.076 M271.400 19.200 C 270.896 19.417,270.822 19.544,271.200 19.544 C 271.530 19.544,272.160 19.389,272.600 19.200 C 273.104 18.983,273.178 18.856,272.800 18.856 C 272.470 18.856,271.840 19.011,271.400 19.200 M350.800 37.710 C 350.800 37.771,352.195 39.166,353.900 40.810 L 357.000 43.800 354.010 40.700 C 351.233 37.821,350.800 37.417,350.800 37.710 M225.991 46.700 L 222.600 50.200 226.100 46.809 C 229.351 43.659,229.782 43.200,229.491 43.200 C 229.431 43.200,227.856 44.775,225.991 46.700 M357.200 44.525 C 357.200 44.594,357.785 45.179,358.500 45.825 L 359.800 47.000 358.625 45.700 C 357.530 44.488,357.200 44.216,357.200 44.525 M217.387 55.300 L 215.000 57.800 217.500 55.413 C 218.875 54.099,220.000 52.974,220.000 52.913 C 220.000 52.617,219.605 52.978,217.387 55.300 M207.387 65.300 L 205.000 67.800 207.500 65.413 C 208.875 64.099,210.000 62.974,210.000 62.913 C 210.000 62.617,209.605 62.978,207.387 65.300 M197.387 75.300 L 195.000 77.800 197.500 75.413 C 199.822 73.195,200.183 72.800,199.887 72.800 C 199.826 72.800,198.701 73.925,197.387 75.300 M260.185 78.100 L 258.200 80.200 260.300 78.215 C 262.251 76.371,262.583 76.000,262.285 76.000 C 262.222 76.000,261.277 76.945,260.185 78.100 M188.791 83.900 L 185.400 87.400 188.900 84.009 C 190.825 82.144,192.400 80.569,192.400 80.509 C 192.400 80.218,191.941 80.649,188.791 83.900 M250.185 88.100 L 248.200 90.200 250.300 88.215 C 252.251 86.371,252.583 86.000,252.285 86.000 C 252.222 86.000,251.277 86.945,250.185 88.100 M178.791 93.900 L 175.400 97.400 178.900 94.009 C 180.825 92.144,182.400 90.569,182.400 90.509 C 182.400 90.218,181.941 90.649,178.791 93.900 M241.775 96.500 L 240.600 97.800 241.900 96.625 C 242.615 95.979,243.200 95.394,243.200 95.325 C 243.200 95.016,242.870 95.288,241.775 96.500 M169.986 102.700 L 167.800 105.000 170.100 102.814 C 172.237 100.782,172.583 100.400,172.286 100.400 C 172.224 100.400,171.189 101.435,169.986 102.700 M231.978 106.300 L 230.600 107.800 232.100 106.422 C 233.496 105.138,233.784 104.800,233.478 104.800 C 233.412 104.800,232.737 105.475,231.978 106.300 M175.505 106.683 C 176.002 106.779,176.722 106.775,177.105 106.675 C 177.487 106.575,177.080 106.496,176.200 106.501 C 175.320 106.505,175.007 106.587,175.505 106.683 M185.105 106.683 C 185.602 106.779,186.322 106.775,186.705 106.675 C 187.087 106.575,186.680 106.496,185.800 106.501 C 184.920 106.505,184.607 106.587,185.105 106.683 M179.111 129.893 C 180.051 129.978,181.491 129.977,182.311 129.891 C 183.130 129.805,182.360 129.736,180.600 129.737 C 178.840 129.739,178.170 129.809,179.111 129.893 M318.575 131.700 L 317.400 133.000 318.700 131.825 C 319.415 131.179,320.000 130.594,320.000 130.525 C 320.000 130.216,319.670 130.488,318.575 131.700 M314.985 135.300 L 313.000 137.400 315.100 135.415 C 317.051 133.571,317.383 133.200,317.085 133.200 C 317.022 133.200,316.077 134.145,314.985 135.300 M240.000 153.800 C 240.746 154.570,241.447 155.200,241.557 155.200 C 241.667 155.200,241.146 154.570,240.400 153.800 C 239.654 153.030,238.953 152.400,238.843 152.400 C 238.733 152.400,239.254 153.030,240.000 153.800 M112.386 160.300 L 110.200 162.600 112.500 160.414 C 114.637 158.382,114.983 158.000,114.686 158.000 C 114.624 158.000,113.589 159.035,112.386 160.300 M353.578 161.900 L 352.200 163.400 353.700 162.022 C 355.096 160.738,355.384 160.400,355.078 160.400 C 355.012 160.400,354.337 161.075,353.578 161.900 M348.391 167.500 L 345.000 171.000 348.500 167.609 C 350.425 165.744,352.000 164.169,352.000 164.109 C 352.000 163.818,351.541 164.249,348.391 167.500 M266.198 184.500 L 247.400 203.400 266.300 184.602 C 276.695 174.262,285.200 165.757,285.200 165.702 C 285.200 165.420,283.671 166.933,266.198 184.500 M102.386 170.300 L 100.200 172.600 102.500 170.414 C 104.637 168.382,104.983 168.000,104.686 168.000 C 104.624 168.000,103.589 169.035,102.386 170.300 M93.591 179.100 L 90.200 182.600 93.700 179.209 C 96.951 176.059,97.382 175.600,97.091 175.600 C 97.031 175.600,95.456 177.175,93.591 179.100 M176.100 176.276 C 176.485 176.376,177.115 176.376,177.500 176.276 C 177.885 176.175,177.570 176.093,176.800 176.093 C 176.030 176.093,175.715 176.175,176.100 176.276 M183.505 176.283 C 184.002 176.379,184.722 176.375,185.105 176.275 C 185.487 176.175,185.080 176.096,184.200 176.101 C 183.320 176.105,183.007 176.187,183.505 176.283 M83.591 189.100 L 80.200 192.600 83.700 189.209 C 86.951 186.059,87.382 185.600,87.091 185.600 C 87.031 185.600,85.456 187.175,83.591 189.100 M149.775 188.100 L 148.600 189.400 149.900 188.225 C 150.615 187.579,151.200 186.994,151.200 186.925 C 151.200 186.616,150.870 186.888,149.775 188.100 M222.512 193.495 C 223.564 193.577,225.184 193.576,226.112 193.492 C 227.040 193.408,226.180 193.341,224.200 193.342 C 222.220 193.343,221.460 193.412,222.512 193.495 M74.987 197.700 L 72.600 200.200 75.100 197.813 C 77.422 195.595,77.783 195.200,77.487 195.200 C 77.426 195.200,76.301 196.325,74.987 197.700 M306.997 208.500 L 295.400 220.200 307.100 208.603 C 313.535 202.224,318.800 196.959,318.800 196.903 C 318.800 196.620,317.775 197.627,306.997 208.500 M167.905 201.083 C 168.402 201.179,169.122 201.175,169.505 201.075 C 169.887 200.975,169.480 200.896,168.600 200.901 C 167.720 200.905,167.407 200.987,167.905 201.083 M171.100 201.082 C 171.595 201.178,172.405 201.178,172.900 201.082 C 173.395 200.987,172.990 200.909,172.000 200.909 C 171.010 200.909,170.605 200.987,171.100 201.082 M244.981 205.700 L 243.400 207.400 245.100 205.819 C 246.681 204.348,246.984 204.000,246.681 204.000 C 246.616 204.000,245.851 204.765,244.981 205.700 M64.987 207.700 L 62.600 210.200 65.100 207.813 C 67.422 205.595,67.783 205.200,67.487 205.200 C 67.426 205.200,66.301 206.325,64.987 207.700 M153.978 207.500 L 152.600 209.000 154.100 207.622 C 155.496 206.338,155.784 206.000,155.478 206.000 C 155.412 206.000,154.737 206.675,153.978 207.500 M114.598 223.300 L 99.400 238.600 114.700 223.402 C 128.920 209.277,130.180 208.000,129.898 208.000 C 129.842 208.000,122.957 214.885,114.598 223.300 M232.000 214.200 C 231.450 214.514,231.180 214.772,231.400 214.772 C 231.620 214.772,232.250 214.514,232.800 214.200 C 233.350 213.886,233.620 213.628,233.400 213.628 C 233.180 213.628,232.550 213.886,232.000 214.200 M54.987 217.700 L 52.600 220.200 55.100 217.813 C 57.422 215.595,57.783 215.200,57.487 215.200 C 57.426 215.200,56.301 216.325,54.987 217.700 M290.393 225.100 L 285.800 229.800 290.500 225.207 C 293.085 222.680,295.200 220.565,295.200 220.507 C 295.200 220.218,294.660 220.734,290.393 225.100 M46.391 226.300 L 43.000 229.800 46.500 226.409 C 49.751 223.259,50.182 222.800,49.891 222.800 C 49.831 222.800,48.256 224.375,46.391 226.300 M284.175 231.300 L 283.000 232.600 284.300 231.425 C 285.015 230.779,285.600 230.194,285.600 230.125 C 285.600 229.816,285.270 230.088,284.175 231.300 M154.383 240.900 C 156.041 242.666,156.400 242.984,156.400 242.683 C 156.400 242.619,155.545 241.764,154.500 240.783 L 152.600 239.000 154.383 240.900 M274.175 240.900 L 273.000 242.200 274.300 241.025 C 275.015 240.379,275.600 239.794,275.600 239.725 C 275.600 239.416,275.270 239.688,274.175 240.900 M77.785 260.500 L 75.800 262.600 77.900 260.615 C 79.055 259.523,80.000 258.578,80.000 258.515 C 80.000 258.217,79.629 258.549,77.785 260.500 M211.500 264.693 C 212.435 264.777,213.965 264.777,214.900 264.693 C 215.835 264.609,215.070 264.540,213.200 264.540 C 211.330 264.540,210.565 264.609,211.500 264.693 M171.978 278.300 L 170.600 279.800 172.100 278.422 C 173.496 277.138,173.784 276.800,173.478 276.800 C 173.412 276.800,172.737 277.475,171.978 278.300 M230.617 284.372 C 230.344 284.814,230.975 285.292,231.344 284.922 C 231.725 284.542,231.654 284.000,231.224 284.000 C 231.017 284.000,230.744 284.168,230.617 284.372 M162.585 287.700 L 160.600 289.800 162.700 287.815 C 163.855 286.723,164.800 285.778,164.800 285.715 C 164.800 285.417,164.429 285.749,162.585 287.700 M16.524 288.200 C 16.526 289.520,16.601 290.012,16.690 289.293 C 16.779 288.574,16.777 287.494,16.686 286.893 C 16.595 286.292,16.522 286.880,16.524 288.200 M224.200 286.800 C 223.696 287.017,223.622 287.144,224.000 287.144 C 224.330 287.144,224.960 286.989,225.400 286.800 C 225.904 286.583,225.978 286.456,225.600 286.456 C 225.270 286.456,224.640 286.611,224.200 286.800 M224.392 291.500 L 220.600 295.400 224.500 291.608 C 228.122 288.086,228.582 287.600,228.292 287.600 C 228.233 287.600,226.478 289.355,224.392 291.500 M16.093 294.000 C 16.093 294.770,16.175 295.085,16.276 294.700 C 16.376 294.315,16.376 293.685,16.276 293.300 C 16.175 292.915,16.093 293.230,16.093 294.000 M152.786 297.500 L 150.600 299.800 152.900 297.614 C 155.037 295.582,155.383 295.200,155.086 295.200 C 155.024 295.200,153.989 296.235,152.786 297.500 M214.992 300.900 L 211.000 305.000 215.100 301.008 C 218.908 297.299,219.382 296.800,219.092 296.800 C 219.033 296.800,217.188 298.645,214.992 300.900 M16.520 300.000 C 16.520 301.210,16.595 301.705,16.687 301.100 C 16.778 300.495,16.778 299.505,16.687 298.900 C 16.595 298.295,16.520 298.790,16.520 300.000 M144.786 305.500 L 142.600 307.800 144.900 305.614 C 147.037 303.582,147.383 303.200,147.086 303.200 C 147.024 303.200,145.989 304.235,144.786 305.500 M205.392 310.500 L 201.400 314.600 205.500 310.608 C 207.755 308.412,209.600 306.567,209.600 306.508 C 209.600 306.218,209.101 306.692,205.392 310.500 M134.985 315.300 L 133.000 317.400 135.100 315.415 C 136.255 314.323,137.200 313.378,137.200 313.315 C 137.200 313.017,136.829 313.349,134.985 315.300 M195.792 320.100 L 191.800 324.200 195.900 320.208 C 199.708 316.499,200.182 316.000,199.892 316.000 C 199.833 316.000,197.988 317.845,195.792 320.100 M131.375 318.900 L 130.200 320.200 131.500 319.025 C 132.712 317.930,132.984 317.600,132.675 317.600 C 132.606 317.600,132.021 318.185,131.375 318.900 M186.392 329.500 L 182.600 333.400 186.500 329.608 C 188.645 327.522,190.400 325.767,190.400 325.708 C 190.400 325.418,189.914 325.878,186.392 329.500 M98.900 332.276 C 99.285 332.376,99.915 332.376,100.300 332.276 C 100.685 332.175,100.370 332.093,99.600 332.093 C 98.830 332.093,98.515 332.175,98.900 332.276 M176.792 339.100 L 173.000 343.000 176.900 339.208 C 179.045 337.122,180.800 335.367,180.800 335.308 C 180.800 335.018,180.314 335.478,176.792 339.100 M168.191 347.700 L 165.000 351.000 168.300 347.809 C 171.365 344.846,171.782 344.400,171.491 344.400 C 171.430 344.400,169.945 345.885,168.191 347.700 M40.600 354.000 C 42.350 355.760,43.871 357.200,43.981 357.200 C 44.091 357.200,42.750 355.760,41.000 354.000 C 39.250 352.240,37.729 350.800,37.619 350.800 C 37.509 350.800,38.850 352.240,40.600 354.000 M161.775 353.700 L 160.600 355.000 161.900 353.825 C 163.112 352.730,163.384 352.400,163.075 352.400 C 163.006 352.400,162.421 352.985,161.775 353.700 M44.400 357.325 C 44.400 357.394,44.985 357.979,45.700 358.625 L 47.000 359.800 45.825 358.500 C 44.730 357.288,44.400 357.016,44.400 357.325 M98.311 378.293 C 99.251 378.378,100.691 378.377,101.511 378.291 C 102.330 378.205,101.560 378.136,99.800 378.137 C 98.040 378.139,97.370 378.209,98.311 378.293 " stroke="none" fill="#929292" fill-rule="evenodd"></path><path id="path4" d="M291.900 16.696 C 293.275 16.774,295.525 16.774,296.900 16.696 C 298.275 16.618,297.150 16.554,294.400 16.554 C 291.650 16.554,290.525 16.618,291.900 16.696 M352.400 39.800 C 353.595 41.010,354.663 42.000,354.773 42.000 C 354.883 42.000,353.995 41.010,352.800 39.800 C 351.605 38.590,350.537 37.600,350.427 37.600 C 350.317 37.600,351.205 38.590,352.400 39.800 M197.416 75.584 C 178.946 94.055,163.917 109.250,164.018 109.351 C 164.119 109.452,164.651 109.286,165.201 108.981 C 165.787 108.657,165.952 108.422,165.601 108.414 C 165.271 108.406,179.941 93.460,198.200 75.200 C 216.459 56.940,231.308 42.000,231.198 42.000 C 231.088 42.000,215.886 57.113,197.416 75.584 M318.400 70.525 C 318.400 70.594,318.985 71.179,319.700 71.825 L 321.000 73.000 319.825 71.700 C 318.730 70.488,318.400 70.216,318.400 70.525 M242.199 95.700 L 220.600 117.400 242.300 95.801 C 262.471 75.725,264.180 74.000,263.899 74.000 C 263.843 74.000,254.078 83.765,242.199 95.700 M332.093 97.600 C 332.093 98.370,332.175 98.685,332.276 98.300 C 332.376 97.915,332.376 97.285,332.276 96.900 C 332.175 96.515,332.093 96.830,332.093 97.600 M377.709 100.000 C 377.709 100.990,377.787 101.395,377.882 100.900 C 377.978 100.405,377.978 99.595,377.882 99.100 C 377.787 98.605,377.709 99.010,377.709 100.000 M332.093 102.000 C 332.093 102.770,332.175 103.085,332.276 102.700 C 332.376 102.315,332.376 101.685,332.276 101.300 C 332.175 100.915,332.093 101.230,332.093 102.000 M176.707 106.290 C 177.426 106.379,178.506 106.377,179.107 106.286 C 179.708 106.195,179.120 106.122,177.800 106.124 C 176.480 106.126,175.988 106.201,176.707 106.290 M183.107 106.290 C 183.826 106.379,184.906 106.377,185.507 106.286 C 186.108 106.195,185.520 106.122,184.200 106.124 C 182.880 106.126,182.388 106.201,183.107 106.290 M188.100 106.676 C 188.485 106.776,189.115 106.776,189.500 106.676 C 189.885 106.575,189.570 106.493,188.800 106.493 C 188.030 106.493,187.715 106.575,188.100 106.676 M314.394 136.300 L 309.400 141.400 314.500 136.406 C 319.237 131.767,319.781 131.200,319.494 131.200 C 319.436 131.200,317.141 133.495,314.394 136.300 M306.400 144.200 C 305.428 145.190,304.723 146.000,304.833 146.000 C 304.943 146.000,305.828 145.190,306.800 144.200 C 307.772 143.210,308.477 142.400,308.367 142.400 C 308.257 142.400,307.372 143.210,306.400 144.200 M239.400 153.600 C 240.483 154.700,241.460 155.600,241.570 155.600 C 241.680 155.600,240.883 154.700,239.800 153.600 C 238.717 152.500,237.740 151.600,237.630 151.600 C 237.520 151.600,238.317 152.500,239.400 153.600 M79.799 193.300 L 41.800 231.400 79.900 193.401 C 100.855 172.501,118.000 155.356,118.000 155.301 C 118.000 155.021,115.125 157.880,79.799 193.300 M347.393 168.100 L 343.000 172.600 347.500 168.207 C 351.680 164.126,352.182 163.600,351.893 163.600 C 351.834 163.600,349.809 165.625,347.393 168.100 M340.187 175.300 L 337.800 177.800 340.300 175.413 C 341.675 174.099,342.800 172.974,342.800 172.913 C 342.800 172.617,342.405 172.978,340.187 175.300 M259.398 191.700 L 244.200 207.000 259.500 191.802 C 267.915 183.443,274.800 176.558,274.800 176.502 C 274.800 176.220,273.523 177.480,259.398 191.700 M207.000 186.000 C 207.859 186.880,208.652 187.600,208.762 187.600 C 208.872 187.600,208.259 186.880,207.400 186.000 C 206.541 185.120,205.748 184.400,205.638 184.400 C 205.528 184.400,206.141 185.120,207.000 186.000 M144.587 192.900 L 142.200 195.400 144.700 193.013 C 147.022 190.795,147.383 190.400,147.087 190.400 C 147.026 190.400,145.901 191.525,144.587 192.900 M132.596 204.900 L 125.000 212.600 132.700 205.004 C 139.854 197.946,140.581 197.200,140.296 197.200 C 140.239 197.200,136.774 200.665,132.596 204.900 M153.978 207.900 L 152.600 209.400 154.100 208.022 C 155.496 206.738,155.784 206.400,155.478 206.400 C 155.412 206.400,154.737 207.075,153.978 207.900 M186.000 207.325 C 186.000 207.394,186.585 207.979,187.300 208.625 L 188.600 209.800 187.425 208.500 C 186.330 207.288,186.000 207.016,186.000 207.325 M288.400 226.600 C 282.133 232.870,277.095 238.000,277.205 238.000 C 277.315 238.000,282.533 232.870,288.800 226.600 C 295.067 220.330,300.105 215.200,299.995 215.200 C 299.885 215.200,294.667 220.330,288.400 226.600 M211.715 218.696 C 212.988 218.776,214.968 218.775,216.115 218.694 C 217.262 218.614,216.220 218.549,213.800 218.550 C 211.380 218.551,210.442 218.616,211.715 218.696 M154.600 240.800 C 155.683 241.900,156.660 242.800,156.770 242.800 C 156.880 242.800,156.083 241.900,155.000 240.800 C 153.917 239.700,152.940 238.800,152.830 238.800 C 152.720 238.800,153.517 239.700,154.600 240.800 M77.792 260.100 L 73.800 264.200 77.900 260.208 C 81.708 256.499,82.182 256.000,81.892 256.000 C 81.833 256.000,79.988 257.845,77.792 260.100 M207.300 264.287 C 207.905 264.378,208.895 264.378,209.500 264.287 C 210.105 264.195,209.610 264.120,208.400 264.120 C 207.190 264.120,206.695 264.195,207.300 264.287 M216.500 264.287 C 217.105 264.378,218.095 264.378,218.700 264.287 C 219.305 264.195,218.810 264.120,217.600 264.120 C 216.390 264.120,215.895 264.195,216.500 264.287 M152.199 298.500 L 131.000 319.800 152.300 298.601 C 164.015 286.942,173.600 277.357,173.600 277.301 C 173.600 277.020,171.903 278.701,152.199 298.500 M230.000 285.224 C 230.000 285.457,229.775 285.518,229.500 285.359 C 229.225 285.201,229.142 285.228,229.316 285.419 C 229.490 285.610,214.730 300.713,196.516 318.983 L 163.400 352.200 197.100 318.601 C 232.458 283.349,231.028 284.800,230.400 284.800 C 230.180 284.800,230.000 284.991,230.000 285.224 M211.500 288.295 C 212.655 288.376,214.545 288.376,215.700 288.295 C 216.855 288.214,215.910 288.148,213.600 288.148 C 211.290 288.148,210.345 288.214,211.500 288.295 M16.528 294.000 C 16.528 295.430,16.601 296.015,16.689 295.300 C 16.778 294.585,16.778 293.415,16.689 292.700 C 16.601 291.985,16.528 292.570,16.528 294.000 M62.134 294.400 C 62.134 296.050,62.205 296.725,62.291 295.900 C 62.378 295.075,62.378 293.725,62.291 292.900 C 62.205 292.075,62.134 292.750,62.134 294.400 M70.400 318.525 C 70.400 318.594,70.985 319.179,71.700 319.825 L 73.000 321.000 71.825 319.700 C 70.730 318.488,70.400 318.216,70.400 318.525 M39.600 352.600 C 40.795 353.810,41.863 354.800,41.973 354.800 C 42.083 354.800,41.195 353.810,40.000 352.600 C 38.805 351.390,37.737 350.400,37.627 350.400 C 37.517 350.400,38.405 351.390,39.600 352.600 M95.900 377.882 C 96.395 377.978,97.205 377.978,97.700 377.882 C 98.195 377.787,97.790 377.709,96.800 377.709 C 95.810 377.709,95.405 377.787,95.900 377.882 M101.900 377.882 C 102.395 377.978,103.205 377.978,103.700 377.882 C 104.195 377.787,103.790 377.709,102.800 377.709 C 101.810 377.709,101.405 377.787,101.900 377.882 " stroke="none" fill="#6c6c6c" fill-rule="evenodd"></path></g></svg>